<svg xmlns="http://www.w3.org/2000/svg" xmlns:xlink="http://www.w3.org/1999/xlink" fill="none" version="1.1" width="25.000000730045713" height="14.000001303652994" viewBox="0 0 25.000000730045713 14.000001303652994"><g transform="matrix(-1,-5.2146120310681e-8,5.2146120310681e-8,-1,49.999999269954245,28.000003910958995)"><path d="M37.5036,28.000001303652994Q37.1558,28.000001303652994,36.7987,27.86530130365299Q36.4414,27.730501303652993,36.1219,27.39740130365299L25.383133,16.20238130365299Q24.99309906,15.795781303652994,25.000124688,15.308281303652993Q25.00715031,14.820792303652993,25.397246,14.414122303652993Q25.787341,14.007516163652994,26.26199,14.007516163652994Q26.73664,14.007516163652994,27.126739999999998,14.414122303652993L37.5036,25.231801303652993L47.8945,14.399474303652994Q48.2846,13.992804733652994,48.7522,14.000130074652994Q49.2198,14.007518583652994,49.609899999999996,14.414125303652993Q50,14.820794303652994,50,15.315611303652993Q50,15.810491303652993,49.609899999999996,16.217101303652992L38.8853,27.39740130365299Q38.5657,27.730501303652993,38.232,27.86530130365299Q37.8984,28.000001303652994,37.5036,28.000001303652994Z" fill="#252B3A" fill-opacity="1"/></g></svg>