<svg height="42" viewBox="0 0 42 42" width="42" xmlns="http://www.w3.org/2000/svg"><path d="m21 42c-11.59797975 0-21-9.4020203-21-21 0-11.59797975 9.40202025-21 21-21 11.5979797 0 21 9.40202025 21 21 0 11.5979797-9.4020203 21-21 21zm10.8653714-24.4593c-.2468571-3.1932857-2.8997143-5.6095714-6.4122857-5.1415714-.4671428.0621428-.9338571.0544285-1.0281428.6051428-.2117143 1.2475715 1.1627142.8468572 1.7545714.8468572 2.0888571 0 4.2214286 1.7357143 4.173 4.2338571-.0162857.8618572-.6942857 2.2937143.6055714 2.1775714.7967143-.0707142 1.0002857-1.5158571.9072857-2.7218571zm-7.3794428 8.7101571c-1.3234286 1.5025715-4.1108572 2.4852858-6.8957143 2.2984286-2.4102857-.1615714-5.6922857-1.5797143-5.0807143-4.5968571.2712857-1.3422857 1.3645714-2.2345715 2.2984286-2.7822857 1.1442857-.6715715 2.241-1.0157143 3.8712857-1.1494286 2.9807143-.2451429 6.768.8652857 6.774 3.8712857.003.9745714-.4834286 1.8094286-.9672857 2.3588571zm1.6328571-5.8067142c.3308572-.8622858.5361429-1.9778572 0-2.601-1.2154286-1.4142858-3.9647143.0338571-5.262.1208571.603-1.8407143-.0587143-3.7084286-2.2988571-3.1452857-2.064.519-3.5811429 1.6452857-5.0202857 3.0848571-1.5077143 1.5081429-3.045 3.2785715-3.2665715 5.565-.2575714 2.6545715 1.4112857 3.9887143 3.024 4.8994286 4.8085715 2.7158571 12.5087143 1.2141429 15.0621429-2.3588571.3578571-.5014286.7135714-1.2874286.7855714-1.8754286.3012857-2.4522857-1.5132857-2.8632857-3.024-3.6895714zm2.7821572-2.9034429c-.1787143-1.2994286-1.311-2.355-2.8422858-2.238-.3497142.0265714-.9685714-.0475714-.9685714.6655714 0 .9604286 1.0658572.4032857 1.7541429.7255715.3514285.1645714.753.7247142.7864285 1.2098571.054.7877143-.2755714 1.4498571.6055715 1.3911429.528-.0351429.7915714-.8331429.6647143-1.7541429zm-11.2502143 8.7706286c1.1288571-.2687143 1.2805714-2.3944286-.4234286-1.9962857-1.4318571.3351428-1.1545714 2.3717142.4234286 1.9962857zm1.089-2.0567143c.2734285.474.9021428.1337143.8468571-.2417143-.066-.4337143-.8524286-.3698571-.8468571.2417143zm3.084-.6651429c-.3852857-1.164-1.6928572-2.0588571-3.447-1.8754285-2.055.2155714-4.0272857 1.9958571-3.2061429 4.2342857 1.2282857 3.3475714 7.9422857 1.536 6.6531429-2.3588572z" fill="#f39a1e" fill-rule="evenodd"/></svg>