<svg height="42" viewBox="0 0 42 42" width="42" xmlns="http://www.w3.org/2000/svg"><path d="m21 42c-11.59797975 0-21-9.4020203-21-21 0-11.59797975 9.40202025-21 21-21 11.5979797 0 21 9.40202025 21 21 0 11.5979797-9.4020203 21-21 21zm-5-22.1428571v2.7428571h4.5371429c-.1828572 1.1771429-1.3714286 3.4514286-4.5371429 3.4514286-2.7314286 0-4.96-2.2628572-4.96-5.0514286s2.2285714-5.0514286 4.96-5.0514286c1.5542857 0 2.5942857.6628572 3.1885714 1.2342857l2.1714286-2.0914285c-1.3942857-1.3028572-3.2-2.0914286-5.36-2.0914286-4.4228571 0-8 3.5771429-8 8s3.5771429 8 8 8c4.6171429 0 7.68-3.2457143 7.68-7.8171429 0-.5257142-.0571429-.9257142-.1257143-1.3257142zm17.1428571 0h-2.2857142v-2.2857143h-2.2857143v2.2857143h-2.2857143v2.2857142h2.2857143v2.2857143h2.2857143v-2.2857143h2.2857142z" fill="#f39a1e" fill-rule="evenodd"/></svg>