<svg height="42" viewBox="0 0 42 42" width="42" xmlns="http://www.w3.org/2000/svg"><path d="m21 42c-11.59797975 0-21-9.4020203-21-21 0-11.59797975 9.40202025-21 21-21 11.5979797 0 21 9.40202025 21 21 0 11.5979797-9.4020203 21-21 21zm-13.71428571-20.7634068v2.0183833c0 .382365.30700474.6878806.68571428.6878806.37793895 0 .68571429-.3079746.68571429-.6878806v-2.0792687c.00905352-.0081391.0179409-.0165634.02665054-.025273l1.9810173-1.9810173c.2667303-.2667303.2664208-.7005911-.0013673-.9683792-.2672432-.2672432-.7013462-.2684002-.96837915-.0013673l-1.76277827 1.7627783-1.76270894-1.7627089c-.2670872-.2670872-.70123419-.2659742-.96847738.001269-.26778808.2677881-.26805356.7016929-.00126906.9684774l1.98141977 1.9814198c.03254257.0325425.06756523.0611035.10446392.0856866zm6.85714281 2.7062639c1.6410747 0 2.9714286-1.3303538 2.9714286-2.9714285s-1.3303539-2.9714286-2.9714286-2.9714286c-1.6410746 0-2.9714285 1.3303539-2.9714285 2.9714286s1.3303539 2.9714285 2.9714285 2.9714285zm8-2.7428571c0 .7574191-.6140094 1.3714286-1.3714285 1.3714286s-1.3714286-.6140095-1.3714286-1.3714286v-2.5142569c0-.3808376-.3070047-.6857431-.6857143-.6857431-.3779389 0-.6857143.3070177-.6857143.6857431v2.514228c0 1.5148671 1.228019 2.742886 2.7428572 2.742886 1.5148381 0 2.7428571-1.2280189 2.7428571-2.7428571v-2.5142569c0-.3808376-.3070047-.6857431-.6857143-.6857431-.3779389 0-.6857143.3070177-.6857143.6857431zm3.8857143.4145619v-2.927035c0-.3805273-.3070047-.6875269-.6857143-.6875269-.3779389 0-.6857142.3078163-.6857142.6875269v4.5678034c0 .3805272.3070047.6875268.6857142.6875268.1373673 0 .2654656-.0406644.3728856-.1106653.052341-.0297312.1015951-.0669034.1462159-.1115241l1.7730527-1.7730528 1.7662914 1.7662914c.2672097.2672097.7023378.2681675.9701259.0003794.2672432-.2672432.2676182-.7021282-.0003795-.9701259l-1.7662913-1.7662913 1.7517623-1.7517623c.2673472-.2673472.267846-.7020163.0000579-.9698044-.2672432-.2672432-.7019843-.2677622-.9698044.0000579zm9.5314174-.4145619c0 .7574191-.6140094 1.3714286-1.3714285 1.3714286s-1.3714286-.6140095-1.3714286-1.3714286v-2.5142569c0-.3808376-.3070047-.6857431-.6857143-.6857431-.3779389 0-.6857143.3070177-.6857143.6857431v2.514228c0 1.5148671 1.228019 2.742886 2.7428572 2.742886 1.5148381 0 2.7428571-1.2280189 2.7428571-2.7428571v-2.5142569c0-.3808376-.3070047-.6857431-.6857143-.6857431-.3779389 0-.6857143.3070177-.6857143.6857431zm-21.4171317 1.3445378c-.8688042 0-1.5731092-.704305-1.5731092-1.5731092 0-.8688043.704305-1.5731093 1.5731092-1.5731093.8688043 0 1.5731093.704305 1.5731093 1.5731093 0 .8688042-.704305 1.5731092-1.5731093 1.5731092z" fill="#f39a1e" fill-rule="evenodd"/></svg>