<svg width="80" height="80" viewBox="0 0 80 80" fill="none" xmlns="http://www.w3.org/2000/svg">
<g clip-path="url(#clip0_79_1629)">
<path d="M48.1082 42.6395V30.5231C48.1082 29.3919 47.1879 28.4716 46.0566 28.4716H40.5535V25.2471C41.3029 25.0273 41.8518 24.334 41.8518 23.5147C41.8518 22.5189 41.042 21.709 40.0462 21.709C39.0503 21.709 38.2405 22.5189 38.2405 23.5147C38.2405 24.299 38.7434 24.9679 39.4433 25.2165V28.4716H33.9403C32.809 28.4716 31.8887 29.3919 31.8887 30.5231V42.6395C31.8887 43.7707 32.809 44.6911 33.9403 44.6911H39.4433V51.0123C38.7201 51.2477 38.1955 51.9282 38.1955 52.7292C38.1955 53.725 39.0054 54.5349 40.0012 54.5349C40.997 54.5349 41.8069 53.725 41.8069 52.7292C41.8069 51.9266 41.2801 51.2444 40.5541 51.0107V44.6911H46.0571C47.1884 44.6911 48.1087 43.7707 48.1087 42.6395H48.1082ZM46.998 42.6395C46.998 43.1585 46.5756 43.5809 46.0566 43.5809H33.9403C33.4213 43.5809 32.9988 43.1585 32.9988 42.6395V30.5231C32.9988 30.0041 33.4213 29.5817 33.9403 29.5817H46.0566C46.5756 29.5817 46.998 30.0041 46.998 30.5231V42.6395Z" fill="#E61E27"/>
<path d="M40.2943 40.1172C39.7087 40.1172 39.2324 40.5934 39.2324 41.1791C39.2324 41.7647 39.7087 42.2409 40.2943 42.2409C40.8799 42.2409 41.3562 41.7647 41.3562 41.1791C41.3562 40.5934 40.8799 40.1172 40.2943 40.1172Z" fill="#E61E27"/>
<path d="M45.4139 40.2755V33.7422C45.4139 32.516 44.4165 31.5185 43.1903 31.5185H42.7429C42.5558 31.2149 42.2211 31.0117 41.8392 31.0117C41.2536 31.0117 40.7773 31.488 40.7773 32.0736C40.7773 32.6592 41.2536 33.1355 41.8392 33.1355C42.2211 33.1355 42.5558 32.9323 42.7429 32.6287H43.1903C43.8042 32.6287 44.3038 33.1282 44.3038 33.7422V40.2755C44.0002 40.4626 43.797 40.7973 43.797 41.1792C43.797 41.7648 44.2733 42.241 44.8589 42.241C45.4445 42.241 45.9207 41.7648 45.9207 41.1792C45.9207 40.7973 45.7176 40.4626 45.4139 40.2755Z" fill="#E61E27"/>
<path d="M35.7162 40.1172C35.1306 40.1172 34.6543 40.5934 34.6543 41.1791C34.6543 41.7647 35.1306 42.2409 35.7162 42.2409C36.3018 42.2409 36.778 41.7647 36.778 41.1791C36.778 40.5934 36.3018 40.1172 35.7162 40.1172Z" fill="#E61E27"/>
<path d="M25.2602 27.5326C25.8519 27.5326 26.3781 27.2462 26.7079 26.8049H30.1483C31.0514 26.8049 31.7863 26.07 31.7863 25.1669V21.5461C32.4918 21.3002 32.9997 20.6291 32.9997 19.8408C32.9997 18.845 32.1899 18.0352 31.194 18.0352C30.1982 18.0352 29.3884 18.845 29.3884 19.8408C29.3884 20.6563 29.9323 21.3473 30.6761 21.5705V25.1669C30.6761 25.4583 30.4391 25.6947 30.1483 25.6947H27.0653C27.0481 24.7139 26.2455 23.9212 25.2608 23.9212C24.276 23.9212 23.4551 24.7311 23.4551 25.7269C23.4551 26.7228 24.2649 27.5326 25.2608 27.5326H25.2602Z" fill="#E61E27"/>
<path d="M41.8002 34.2184H38.745C38.0944 34.2184 37.5649 34.7479 37.5649 35.3985V36.5247H37.1558C36.669 36.5247 36.2732 36.129 36.2732 35.6421V32.9778C36.5768 32.7907 36.78 32.456 36.78 32.0741C36.78 31.4885 36.3037 31.0122 35.7181 31.0122C35.1325 31.0122 34.6562 31.4885 34.6562 32.0741C34.6562 32.456 34.8594 32.7907 35.163 32.9778V35.6421C35.163 36.7412 36.0573 37.6349 37.1558 37.6349H37.5649V38.3354C37.5649 38.986 38.0944 39.5155 38.745 39.5155H41.8002C42.4507 39.5155 42.9803 38.986 42.9803 38.3354V35.3985C42.9803 34.7479 42.4507 34.2184 41.8002 34.2184ZM41.8701 38.3354C41.8701 38.3743 41.8385 38.4053 41.8002 38.4053H38.745C38.7061 38.4053 38.675 38.3737 38.675 38.3354V35.3985C38.675 35.3596 38.7067 35.3285 38.745 35.3285H41.8002C41.839 35.3285 41.8701 35.3602 41.8701 35.3985V38.3354Z" fill="#E61E27"/>
<path d="M68.9972 46.7345C68.985 46.0867 68.9173 45.4384 68.793 44.8011C68.5671 43.6798 68.1807 42.5897 67.6312 41.5916C67.3575 41.0926 67.0528 40.6102 66.7092 40.159C66.6504 40.0785 66.6687 40.104 66.6603 40.0929L66.6492 40.0796L66.6409 40.0696L66.6431 40.0618L66.6581 40.0052C66.6787 39.9297 66.6981 39.8537 66.7159 39.7776C66.7347 39.7016 66.7525 39.6255 66.7686 39.5489C66.9085 38.9089 66.989 38.2556 67.0089 37.6022C67.0228 37.2759 67.0034 36.9489 66.9928 36.6225C66.9917 36.5409 66.9823 36.4593 66.974 36.3777L66.949 36.1335C66.9307 35.9709 66.919 35.8077 66.8874 35.6467L66.803 35.1627C66.7908 35.0816 66.768 35.0028 66.7497 34.9229L66.6914 34.6842L66.6326 34.4455C66.6143 34.3656 66.5854 34.2884 66.5621 34.2101L66.4133 33.7417C66.3573 33.5879 66.2957 33.4358 66.2368 33.2837L66.1463 33.0556L66.0425 32.833C65.9726 32.6853 65.9049 32.536 65.8311 32.39L65.5946 31.9609C65.5613 31.9021 65.5302 31.8422 65.4947 31.785L65.3859 31.6146L65.1672 31.2743C65.1317 31.2166 65.0906 31.1633 65.0512 31.1089L64.9318 30.9457C64.8513 30.838 64.7736 30.7276 64.6898 30.6221L64.4311 30.3124C64.3445 30.2091 64.2591 30.1053 64.1641 30.0098C63.9782 29.8161 63.7978 29.6157 63.5963 29.4375L63.2999 29.1644C63.1983 29.0767 63.0928 28.9935 62.989 28.908L62.8325 28.7809C62.7803 28.7387 62.7287 28.696 62.6732 28.6577L62.5255 28.5516L62.515 28.545C62.5155 28.5416 62.5161 28.5372 62.5161 28.5339V28.5311C62.5161 28.5311 62.5161 28.5311 62.5161 28.5283V28.5178L62.5194 28.4745L62.5294 28.3018C62.54 28.072 62.5439 27.8417 62.5361 27.6119C62.5217 26.9497 62.4428 26.2869 62.2968 25.6391C62.1492 24.9913 61.9377 24.3591 61.6674 23.7552C61.3987 23.1501 61.0668 22.5751 60.6866 22.0383C60.3058 21.5015 59.8784 20.9997 59.4065 20.5457C58.6816 19.8435 57.8579 19.2518 56.9742 18.7777C56.8626 18.7206 56.7527 18.6601 56.6394 18.6057L56.2997 18.4452L55.9545 18.2976C55.8407 18.2504 55.7319 18.2116 55.6203 18.1683L55.5298 18.1338L55.5115 18.0878C55.4571 17.9551 55.4044 17.8219 55.3483 17.6898C55.29 17.5582 55.2329 17.4267 55.1724 17.2957C55.1096 17.1658 55.0486 17.0353 54.9836 16.9066C54.7 16.3454 54.3758 15.7997 54.0089 15.2768C53.642 14.7545 53.2318 14.2549 52.7722 13.792L52.599 13.6194C52.5407 13.5622 52.4797 13.5072 52.4197 13.4517C52.3009 13.339 52.1749 13.2325 52.05 13.1253C51.9251 13.0177 51.7919 12.9177 51.6631 12.815L51.4611 12.668C51.3939 12.6191 51.3268 12.5697 51.2563 12.5242C50.7023 12.1501 50.105 11.822 49.4645 11.575L49.2241 11.4834L48.9793 11.4018L48.8566 11.3618L48.7323 11.3263L48.4825 11.2569C48.1461 11.1753 47.8064 11.1043 47.4606 11.0654C47.2885 11.041 47.1153 11.0299 46.9422 11.0171C46.8556 11.0094 46.769 11.0099 46.6818 11.0066C46.5963 11.0049 46.5059 11.001 46.4243 11.0021L45.9391 11.0138C45.777 11.021 45.6138 11.0366 45.4512 11.0482C44.799 11.1087 44.1407 11.2297 43.4934 11.4257C42.8468 11.6216 42.2112 11.8908 41.6178 12.2405C41.514 12.301 41.4141 12.3682 41.312 12.432C41.2115 12.4981 41.1071 12.5592 41.0122 12.6324C40.8196 12.7756 40.622 12.9139 40.4438 13.0732L40.1713 13.3069L40.043 13.4312L40.0108 13.4623C40.0031 13.47 40.007 13.4662 40.0053 13.4673L40.0036 13.4684C40.0036 13.4684 40.0003 13.4717 39.9986 13.4745L39.9975 13.4762L39.9953 13.4723C39.9953 13.4723 39.9925 13.4689 39.9909 13.4678L39.9898 13.4667L39.9775 13.4551L39.9503 13.4284L39.8404 13.3218C39.8038 13.2863 39.7633 13.2541 39.725 13.2203C39.4169 12.9488 39.09 12.6946 38.743 12.4692C38.1685 12.0918 37.5479 11.7809 36.9063 11.5561C36.2652 11.3296 35.6074 11.1798 34.954 11.0943L34.7087 11.0632C34.6271 11.0527 34.5461 11.0493 34.4645 11.0421L34.2202 11.0238L34.0981 11.0155L33.9771 11.0121L33.7345 11.006L33.6135 11.0033C33.573 11.0021 33.5336 11.001 33.4886 11.0033C33.3154 11.0083 33.1417 11.0083 32.9685 11.0244C32.8819 11.031 32.7953 11.0371 32.7087 11.0449L32.4501 11.0771L32.3207 11.0937L32.1925 11.1159L31.9361 11.1615C31.5975 11.2342 31.2605 11.3169 30.9352 11.4296C30.2808 11.6449 29.6636 11.9441 29.0913 12.2966C28.5168 12.648 27.995 13.061 27.5159 13.5078C27.0364 13.9546 26.6073 14.442 26.222 14.9543C25.8363 15.4661 25.4943 16.0034 25.1935 16.558C24.9437 17.0209 24.7222 17.4961 24.5279 17.979L24.4652 18.1344L24.2665 18.2099L24.1405 18.2582L24.0772 18.2826L24.0117 18.3104L23.7503 18.4219C23.4044 18.5774 23.0642 18.745 22.7356 18.9359C22.075 19.3112 21.4572 19.7608 20.8871 20.267C20.3992 20.7028 19.9529 21.1862 19.5516 21.7075C19.1509 22.2281 18.7973 22.7888 18.5042 23.3816C18.21 23.9739 17.9719 24.5961 17.7976 25.2367C17.6255 25.8778 17.5184 26.5372 17.4762 27.1989L17.464 27.3976L17.459 27.5963C17.4562 27.729 17.4523 27.8611 17.4556 27.9938C17.4579 28.1264 17.4623 28.2585 17.4701 28.3912L17.4762 28.4906L17.4789 28.5328V28.5394L17.4801 28.5472L17.4712 28.5533L17.469 28.555L17.4395 28.5761L17.3801 28.6188L17.2614 28.7043L17.1476 28.7959L16.9205 28.9807C16.8456 29.0429 16.7684 29.1028 16.6957 29.1672L16.4804 29.3654C16.3371 29.498 16.1917 29.6285 16.0602 29.7728L15.8581 29.9849C15.7915 30.0559 15.7221 30.1253 15.661 30.2013L15.2847 30.651C15.167 30.8075 15.0516 30.9651 14.9361 31.1233C14.9078 31.1633 14.8773 31.2016 14.8512 31.2427L14.7713 31.3659L14.6125 31.6135C14.5686 31.6823 14.5242 31.7506 14.4821 31.8205L14.3627 32.0348C14.2844 32.178 14.2023 32.3195 14.129 32.4655C13.9903 32.7619 13.8426 33.0539 13.7305 33.362L13.6411 33.5907L13.5967 33.705C13.5828 33.7433 13.5712 33.7827 13.5584 33.8216L13.4102 34.2901C13.3985 34.3295 13.3852 34.3678 13.3741 34.4078L13.3447 34.5271L13.2859 34.7658C13.2487 34.9251 13.2043 35.0833 13.1798 35.2454L13.096 35.73C13.0805 35.8104 13.0749 35.892 13.0655 35.9736L13.04 36.2179C12.9978 36.5432 12.9978 36.8701 12.985 37.197C12.9772 37.8498 13.0344 38.5054 13.1487 39.1504C13.1865 39.3591 13.2292 39.5672 13.2797 39.7737C13.3031 39.8742 13.3297 39.9736 13.3563 40.0729L13.3375 40.0968L13.3325 40.1029L13.3303 40.1057L13.3081 40.1356L13.2115 40.2678L13.0194 40.5325L12.8385 40.8051L12.7485 40.9416C12.7191 40.9877 12.6919 41.0349 12.6636 41.0815L12.4954 41.3624C12.4405 41.4567 12.3899 41.5539 12.3378 41.6499C12.2867 41.7465 12.2318 41.8414 12.1857 41.9408C12.0902 42.1378 11.9925 42.3338 11.9098 42.5364C11.8676 42.6374 11.8221 42.7373 11.7827 42.8395L11.6672 43.1475C11.6484 43.1991 11.6284 43.2502 11.6106 43.3018L11.5601 43.4584L11.4596 43.772C11.4291 43.8775 11.4013 43.9835 11.3725 44.0895C11.3442 44.1955 11.3136 44.301 11.292 44.4087C11.1432 45.0409 11.0489 45.6865 11.015 46.3343C10.9811 46.9815 10.9967 47.6309 11.0733 48.2759C11.2282 49.5648 11.6028 50.8304 12.1868 51.9861C12.4777 52.5645 12.8146 53.1179 13.1959 53.6375C13.5784 54.1565 14.0019 54.6433 14.4604 55.0923C14.9183 55.5425 15.4146 55.9516 15.9375 56.3207L16.134 56.4584L16.3349 56.5894C16.4681 56.6782 16.6058 56.7598 16.7423 56.8425C16.8106 56.8847 16.88 56.9241 16.95 56.9624C16.9749 56.9763 16.9649 56.9713 16.9688 56.9735C16.9699 56.9741 16.971 56.9746 16.9722 56.9752H16.9733L16.9744 57.0207V57.0262L16.976 57.0462L16.9844 57.1506L17.001 57.3587C17.0182 57.6368 17.061 57.9127 17.0987 58.1891C17.1914 58.7387 17.3074 59.286 17.4795 59.8161L17.5406 60.0159C17.5622 60.082 17.5872 60.1469 17.6105 60.2124L17.7532 60.6049L17.9152 60.989C17.943 61.0528 17.9685 61.1178 17.9979 61.1805L18.0884 61.3681C18.3227 61.8721 18.6058 62.3506 18.9072 62.8135L19.1797 63.2099L19.47 63.5923L19.5427 63.6878L19.6193 63.7799L19.7737 63.9631L19.9285 64.1463L20.0906 64.3223L20.2532 64.4977L20.3348 64.5854L20.4198 64.6692L20.7611 65.0033L21.1175 65.3208L21.2069 65.3997L21.299 65.4752L21.4844 65.625C22.4741 66.4227 23.5832 67.0616 24.7539 67.5367C25.3411 67.7693 25.9417 67.9686 26.5545 68.1185C26.7072 68.1584 26.8621 68.1873 27.0158 68.2217L27.2467 68.2711L27.4799 68.3105C27.6353 68.3349 27.7902 68.3655 27.9461 68.3843L28.4146 68.4398C28.4929 68.4504 28.5712 68.4559 28.6494 68.4609L28.8848 68.4776L29.1201 68.4937C29.1984 68.4987 29.2772 68.4987 29.3555 68.5015L29.8256 68.5115L30.2814 68.5053C30.8897 68.4898 31.5003 68.4432 32.1104 68.361C33.3293 68.1973 34.5483 67.8925 35.7201 67.4096C36.3057 67.1682 36.8791 66.8817 37.4297 66.5476C37.9804 66.2129 38.506 65.8271 38.9973 65.3958C39.0883 65.3164 39.1793 65.2365 39.2659 65.1515C39.3531 65.0672 39.443 64.9861 39.5268 64.8979L39.7794 64.6353L39.997 64.3905C40.1074 64.5143 40.2157 64.6409 40.3322 64.758L40.5104 64.9417C40.5709 65.0017 40.6331 65.06 40.6947 65.1188C41.1699 65.5695 41.6822 65.9769 42.2234 66.3305C42.7641 66.6852 43.3297 66.9916 43.9092 67.252C45.0699 67.7732 46.2844 68.1123 47.5022 68.3044C48.1117 68.401 48.7223 68.4615 49.3318 68.4904C49.4839 68.4954 49.6365 68.5037 49.7886 68.5059C49.9413 68.507 50.0906 68.512 50.2466 68.5098L50.7173 68.4987L50.835 68.4954L50.9526 68.4876L51.188 68.4709C51.5022 68.4543 51.8136 68.4093 52.1261 68.3732C52.4364 68.3211 52.7483 68.2761 53.0558 68.2039C53.365 68.1434 53.6686 68.0563 53.9734 67.9758C54.2742 67.8803 54.5773 67.7915 54.8721 67.6766C55.0203 67.6222 55.169 67.5689 55.3139 67.5051C55.4593 67.4435 55.6059 67.3835 55.7496 67.3191L56.1776 67.1149C56.2492 67.0816 56.3192 67.0444 56.3891 67.0072L56.5984 66.8951C57.1535 66.5909 57.6924 66.2545 58.197 65.8687C58.7027 65.4851 59.1851 65.0677 59.6313 64.6131C60.0754 64.1557 60.4873 63.665 60.8608 63.1449L61.1095 62.7825C61.1917 62.6609 61.2655 62.5338 61.3432 62.4094L61.4581 62.2218L61.5647 62.0286C61.6346 61.8993 61.7085 61.7722 61.774 61.6401C62.0415 61.1155 62.2652 60.5682 62.4556 60.0093C62.6382 59.447 62.7798 58.8719 62.8802 58.2891C62.903 58.1431 62.9219 57.9965 62.9419 57.85C62.9513 57.7767 62.9624 57.7034 62.9702 57.6302L62.9885 57.4093L63.019 57.024L63.0201 56.9763C63.0201 56.9763 63.0246 56.9752 63.0257 56.9741H63.0262C63.0262 56.9741 63.0257 56.9741 63.0279 56.9724L63.0345 56.9685L63.0606 56.9541L63.1128 56.9247C63.1828 56.8864 63.2505 56.8431 63.3193 56.8026L63.5241 56.6782L63.7251 56.5472C64.2602 56.1958 64.7692 55.8034 65.2416 55.3693C65.7145 54.9358 66.1547 54.4645 66.5543 53.9594C66.9529 53.4532 67.3092 52.9125 67.6201 52.3452C68.244 51.2123 68.6648 49.9617 68.8668 48.6789C68.9645 48.0367 69.0078 47.3872 68.9934 46.74L68.9972 46.7345ZM67.755 48.5007C67.5729 49.6536 67.1954 50.7771 66.6331 51.7979C66.3534 52.3092 66.0314 52.7971 65.6717 53.2545C65.3104 53.7107 64.9129 54.137 64.4844 54.53C64.0565 54.9236 63.5952 55.2794 63.11 55.598L62.9274 55.7168L62.7415 55.8295C62.6787 55.8661 62.6182 55.9061 62.5544 55.9405L62.4023 56.0254C62.3218 56.0721 62.2375 56.112 62.1553 56.1553C62.072 56.197 61.9877 56.2353 61.9033 56.2758C61.8961 56.3996 61.91 56.5289 61.9038 56.6549L61.8966 56.9258L61.8955 56.9596L61.8922 57.0074L61.8844 57.1067L61.8683 57.306L61.8517 57.5053C61.8445 57.5713 61.8345 57.6374 61.8261 57.7034C61.8078 57.8356 61.7912 57.9677 61.7706 58.0992C61.6796 58.6243 61.5519 59.1428 61.3876 59.6501C61.215 60.1541 61.0135 60.6482 60.772 61.1228C60.7126 61.2421 60.6455 61.357 60.5828 61.4741L60.4867 61.649L60.3824 61.8188C60.3119 61.9315 60.2453 62.047 60.1709 62.1569L59.9455 62.4855C59.6069 62.9573 59.2328 63.4025 58.8292 63.8188C58.4229 64.2329 57.9839 64.6126 57.5226 64.9623C57.0624 65.3142 56.5701 65.6211 56.0633 65.8992L55.8723 66.0019C55.809 66.0363 55.7452 66.0708 55.6792 66.1007L55.2878 66.2878C55.1557 66.3466 55.0219 66.401 54.8893 66.4577C54.7572 66.5165 54.6206 66.5648 54.4852 66.6142C54.216 66.7191 53.9384 66.8001 53.6631 66.8878C53.3839 66.9611 53.1058 67.0416 52.8227 67.0965C52.5413 67.1632 52.2554 67.2031 51.9712 67.252C51.6848 67.2847 51.3989 67.3269 51.1103 67.3413L50.8943 67.3563L50.7867 67.3635L50.6784 67.3663L50.246 67.3763C50.1022 67.3785 49.9607 67.3741 49.8175 67.373C49.6748 67.3708 49.5322 67.363 49.3901 67.358C48.82 67.3308 48.2499 67.2742 47.6837 67.1848C46.5519 67.0066 45.4334 66.693 44.3766 66.2179C43.8481 65.9803 43.3358 65.7027 42.8484 65.383C42.3605 65.0644 41.9015 64.6986 41.4768 64.2962C41.4219 64.2434 41.3664 64.1912 41.312 64.138L41.1532 63.9737C41.0455 63.866 40.9473 63.7488 40.8451 63.6356L40.824 63.6123L40.8007 63.5845L40.7547 63.5285L40.6631 63.4158C40.6059 63.3381 40.5454 63.262 40.4904 63.1827C40.33 62.959 40.1896 62.7214 40.0636 62.4766L40.0164 62.385L40.0103 62.3734C40.0086 62.3695 40.0064 62.3645 40.0014 62.365C39.9964 62.365 39.9947 62.37 39.9931 62.3734L39.987 62.385L39.9631 62.4311C39.9309 62.4921 39.9009 62.5538 39.8676 62.6143L39.7655 62.7936C39.7305 62.8529 39.6928 62.9101 39.6567 62.969C39.5074 63.2004 39.3425 63.4213 39.1632 63.6306L38.9551 63.8643L38.7297 64.0986C38.6553 64.1774 38.5743 64.2495 38.4966 64.325C38.4194 64.4011 38.3378 64.4721 38.2562 64.5432C37.8166 64.9295 37.3442 65.2759 36.8469 65.5784C36.3495 65.8804 35.8289 66.1407 35.2943 66.3611C34.2241 66.8024 33.0995 67.0849 31.9649 67.2375C31.3976 67.3136 30.827 67.3574 30.2564 67.3724L29.829 67.378L29.3966 67.3685C29.3244 67.3663 29.2522 67.3663 29.1806 67.3619L28.9647 67.3469L28.7488 67.3314C28.6766 67.3264 28.605 67.3214 28.5334 67.3119L28.1038 67.2609C27.9606 67.2436 27.819 67.2153 27.6764 67.1931L27.4627 67.1576L27.2512 67.1121C27.1102 67.0805 26.9681 67.0544 26.8288 67.0177C26.2676 66.8806 25.718 66.698 25.1807 66.4854C24.11 66.0502 23.0969 65.4674 22.1955 64.7397L22.0267 64.6031L21.9424 64.5348L21.8613 64.4627L21.5366 64.1735L21.2257 63.8693L21.148 63.7933L21.0742 63.7139L20.926 63.5546L20.7784 63.3947L20.6379 63.2282L20.498 63.0617L20.4281 62.9784L20.362 62.8918L20.0984 62.5449L19.8514 62.1857C19.5783 61.7655 19.3218 61.3331 19.1103 60.8774L19.0282 60.7081C19.0015 60.6515 18.9788 60.5927 18.9538 60.5355L18.8073 60.1886L18.6785 59.8344C18.6574 59.775 18.6352 59.7167 18.6152 59.6568L18.5602 59.4764C18.4043 58.9985 18.301 58.505 18.2166 58.0099C18.1833 57.7606 18.1439 57.5125 18.1289 57.261L18.114 57.0734L18.1062 56.9796C18.1045 56.9619 18.1051 56.9546 18.1045 56.943L18.1034 56.9113L18.0968 56.656C18.0945 56.6049 18.0951 56.5539 18.0968 56.5028L18.1001 56.3496L18.1012 56.3113V56.2919C18.1017 56.2858 18.1029 56.2774 18.0951 56.2758L18.0257 56.243L17.8869 56.1775C17.8042 56.1353 17.721 56.0932 17.6388 56.0493L17.5095 55.9771C17.4462 55.9422 17.3829 55.9066 17.3213 55.8683C17.197 55.7929 17.0721 55.7196 16.9516 55.6385L16.7695 55.5198L16.5914 55.3949C16.1168 55.0601 15.6672 54.6894 15.2525 54.2819C14.8373 53.875 14.4543 53.4349 14.109 52.9664C13.7649 52.4968 13.4607 51.9978 13.1987 51.4771C13.1304 51.3483 13.0727 51.214 13.0105 51.0824C12.95 50.9498 12.8962 50.8143 12.8396 50.68C12.7891 50.5434 12.7347 50.408 12.6875 50.2698C12.642 50.131 12.592 49.9939 12.5531 49.8535C12.3855 49.2945 12.2662 48.7211 12.1973 48.1416C12.1285 47.5621 12.1146 46.977 12.1452 46.3948C12.1751 45.8119 12.2606 45.2319 12.3944 44.664C12.4138 44.5674 12.4416 44.4725 12.4671 44.377C12.4932 44.2821 12.5176 44.1866 12.5454 44.0917L12.6359 43.8097L12.6814 43.6687C12.6975 43.6221 12.7158 43.576 12.7324 43.53L12.8362 43.253C12.8718 43.1608 12.9128 43.0715 12.9506 42.9804C13.025 42.7978 13.1138 42.6213 13.1993 42.4442C13.2403 42.3549 13.2903 42.2694 13.3364 42.1822C13.3835 42.0962 13.4285 42.0079 13.4785 41.923L13.6306 41.6699C13.6561 41.6277 13.6811 41.585 13.7072 41.5439L13.7888 41.4207L13.952 41.1748L14.1251 40.9361L14.2123 40.8167L14.2334 40.7879L14.2489 40.7684L14.28 40.7296L14.4038 40.5747C14.441 40.5275 14.4826 40.4831 14.5215 40.4376L14.5809 40.3693L14.6108 40.3355C14.6153 40.3294 14.6219 40.3249 14.6247 40.3177C14.6242 40.3105 14.6203 40.3033 14.618 40.2961C14.5759 40.1828 14.5376 40.069 14.502 39.9536C14.4848 39.8975 14.4671 39.8348 14.4526 39.7832C14.4282 39.6916 14.4038 39.6 14.3821 39.5073C14.3372 39.323 14.2989 39.1371 14.265 38.9505C14.1629 38.3738 14.1118 37.7882 14.1185 37.2031C14.1307 36.9112 14.129 36.6181 14.1679 36.3272L14.1906 36.1091C14.199 36.0364 14.2034 35.9631 14.2178 35.8915L14.2928 35.4585C14.3139 35.3136 14.3544 35.1727 14.3877 35.03L14.4399 34.8168L14.466 34.7103C14.4754 34.6747 14.4876 34.6403 14.4982 34.6054L14.6308 34.1868C14.6425 34.1519 14.6525 34.1169 14.6647 34.0825L14.7046 33.9803L14.7846 33.7761C14.8839 33.5002 15.0177 33.2393 15.1409 32.974C15.2064 32.8435 15.2808 32.717 15.3508 32.5887L15.4573 32.3967C15.4951 32.3345 15.5356 32.2735 15.575 32.2113L15.7171 31.9898L15.7882 31.8794C15.8115 31.8422 15.8392 31.8083 15.8648 31.7722L16.1767 31.3487L16.5148 30.9457C16.5697 30.8769 16.6319 30.8153 16.6918 30.7514L16.8733 30.561C16.991 30.4311 17.1226 30.3146 17.2508 30.1952L17.444 30.017C17.5095 29.9593 17.5789 29.9055 17.6466 29.8494L17.8503 29.6834L17.9524 29.6007L18.059 29.5241L18.2277 29.4037C18.2738 29.3715 18.3182 29.3376 18.3649 29.3071L18.5541 29.1889L18.6491 29.13C18.664 29.1195 18.6829 29.1123 18.694 29.0984L18.684 29.0434C18.6579 28.8969 18.6374 28.7492 18.6235 28.601L18.6135 28.4872L18.6035 28.3274C18.5969 28.2097 18.593 28.0926 18.5908 27.9749C18.588 27.8572 18.5908 27.7401 18.5941 27.6224L18.598 27.4459L18.6091 27.2699C18.6463 26.6832 18.7412 26.0993 18.8938 25.5309C19.0487 24.963 19.2596 24.4113 19.5211 23.8851C19.7814 23.3583 20.0962 22.8593 20.4536 22.3952C20.8111 21.9306 21.2097 21.4982 21.6465 21.1085C22.1566 20.6556 22.71 20.252 23.3029 19.9157C23.5971 19.7441 23.9035 19.5937 24.2138 19.4538C24.3703 19.3872 24.5268 19.3178 24.6828 19.2612L24.7999 19.2168L24.8582 19.1946C24.8693 19.1902 24.8737 19.1891 24.8804 19.1868L24.8998 19.1802L25.0542 19.128C25.1274 19.1019 25.2029 19.083 25.2767 19.0603L25.3328 19.0436C25.3372 19.042 25.3422 19.0414 25.3467 19.0386C25.35 19.0347 25.35 19.0297 25.3522 19.0253L25.3617 18.9976L25.3989 18.8871C25.4227 18.8133 25.4494 18.74 25.4777 18.6673L25.5188 18.5574C25.5238 18.5429 25.5371 18.5107 25.5482 18.4841L25.582 18.4008C25.7613 17.9557 25.9645 17.5188 26.1932 17.0947C26.4691 16.5874 26.781 16.0973 27.1302 15.6332C27.4793 15.1692 27.8662 14.7301 28.2947 14.331C28.7227 13.9319 29.1862 13.565 29.6913 13.2569C30.1948 12.9472 30.7326 12.6863 31.2994 12.4998C31.5808 12.4015 31.8722 12.331 32.1642 12.2677L32.3851 12.2289L32.4956 12.2095L32.6072 12.195L32.8297 12.1673C32.9041 12.1601 32.9791 12.1556 33.0534 12.1495C33.2028 12.1351 33.3521 12.1362 33.5019 12.1312C33.6496 12.1306 33.7939 12.1367 33.9399 12.1395L34.0493 12.1423L34.1586 12.1501L34.3773 12.1667C34.45 12.1734 34.5233 12.1756 34.596 12.1856L34.8142 12.2139C35.3959 12.2899 35.9748 12.4221 36.5349 12.6197C37.0956 12.8156 37.6323 13.0859 38.1302 13.4129C38.4305 13.6077 38.7142 13.8286 38.9823 14.0645C39.0156 14.094 39.0511 14.1217 39.0833 14.1528L39.1793 14.2461L39.3148 14.3787C39.3558 14.4165 39.3925 14.4592 39.4297 14.5008L39.5412 14.6257C39.5862 14.6729 39.624 14.7256 39.6645 14.7767L39.7849 14.9305C39.8238 14.9826 39.8588 15.0376 39.8959 15.0909L39.9509 15.1714L39.9787 15.2119L39.9925 15.2319L39.9997 15.2419C40.0025 15.2452 40.0081 15.2446 40.0103 15.2413C40.0847 15.1347 40.1557 15.0254 40.2323 14.9205L40.3528 14.7667C40.3927 14.7151 40.4322 14.6635 40.4771 14.6163C40.5648 14.5197 40.6475 14.4203 40.7441 14.331L40.9395 14.14L41.1765 13.9369C41.3314 13.7975 41.5029 13.6788 41.67 13.5539C41.7521 13.4895 41.8426 13.4373 41.9298 13.3801C42.018 13.3246 42.1046 13.2663 42.1945 13.2136C42.7085 12.9105 43.2609 12.6768 43.827 12.5053C44.3938 12.3338 44.9761 12.2261 45.5589 12.1723C45.7049 12.1623 45.8503 12.1484 45.9963 12.1412L46.4332 12.1306C46.7307 12.1329 47.031 12.1456 47.3274 12.185C47.6249 12.2183 47.918 12.2799 48.2083 12.3499L48.4242 12.4098L48.5319 12.4404L48.6379 12.4753L48.85 12.5458L49.0587 12.6258C50.1705 13.0593 51.1552 13.7548 51.9751 14.5852C52.3875 14.9999 52.7583 15.4511 53.0914 15.9257C53.425 16.4003 53.7214 16.8988 53.9817 17.4139C54.0411 17.5321 54.0972 17.652 54.1549 17.7714C54.2104 17.8913 54.2626 18.0128 54.317 18.1338C54.3686 18.2554 54.4175 18.3781 54.4674 18.5008L54.4846 18.5435L54.4957 18.574L54.5185 18.6345L54.5634 18.7555C54.5884 18.8227 54.6101 18.891 54.6334 18.9587L54.6506 19.0098L54.6595 19.0353C54.6645 19.0431 54.6756 19.042 54.6833 19.0453L54.7866 19.0758C54.8554 19.0958 54.9242 19.1163 54.992 19.1402L55.0935 19.1746L55.1468 19.1929L55.224 19.2224C55.3272 19.2623 55.4299 19.2995 55.5332 19.3423L55.8435 19.4749L56.1488 19.6192C56.2503 19.6675 56.3486 19.7225 56.4491 19.7736C57.2423 20.1988 57.9805 20.7294 58.6283 21.3572C59.0502 21.763 59.4315 22.2115 59.7707 22.6894C60.1098 23.1679 60.4046 23.6791 60.6427 24.2164C60.8825 24.7532 61.0701 25.3133 61.2011 25.8872C61.3304 26.4612 61.3998 27.0485 61.4132 27.6363C61.4204 27.8406 61.417 28.0448 61.4076 28.2486C61.4026 28.3474 61.3954 28.4661 61.3904 28.5211C61.3848 28.5855 61.3787 28.6499 61.371 28.7137C61.3621 28.7903 61.3515 28.8664 61.3393 28.9419L61.3199 29.0556L61.3149 29.084C61.3149 29.089 61.3121 29.0934 61.3132 29.0984C61.3155 29.1028 61.321 29.1039 61.3243 29.1073L61.3732 29.1378L61.5686 29.2599C61.6008 29.2805 61.6341 29.2999 61.6663 29.3215L61.7601 29.3887L61.9993 29.5597C62.0493 29.5935 62.0953 29.6324 62.1425 29.6707L62.283 29.785C62.3762 29.8616 62.4711 29.9366 62.5622 30.0148L62.8281 30.2607C63.0096 30.42 63.1705 30.6004 63.3376 30.7742C63.4231 30.8597 63.4992 30.9529 63.5769 31.0456L63.8094 31.3232C63.8849 31.4175 63.9538 31.5169 64.0259 31.6135L64.1331 31.7595C64.1686 31.8083 64.2058 31.856 64.2374 31.9077L64.4328 32.213L64.5305 32.3656C64.5621 32.4172 64.5899 32.4711 64.6199 32.5232L64.8319 32.9074C64.898 33.0378 64.9579 33.1716 65.0206 33.3037L65.1139 33.5024L65.1944 33.7067C65.2471 33.8432 65.3026 33.9787 65.3526 34.1163L65.4852 34.5349C65.5058 34.6048 65.5324 34.6736 65.5485 34.7452L65.6007 34.9584L65.6529 35.1715C65.669 35.2426 65.6901 35.3131 65.7006 35.3858L65.7755 35.8188C65.8044 35.9625 65.8138 36.1091 65.8305 36.254L65.8527 36.4721C65.8599 36.5448 65.8688 36.6175 65.8694 36.6908C65.8777 36.9833 65.8966 37.2753 65.8838 37.5678C65.866 38.1523 65.7939 38.7363 65.669 39.3086C65.6545 39.3768 65.639 39.4451 65.6218 39.5128C65.6057 39.5811 65.5885 39.6488 65.5702 39.716L65.5474 39.8015L65.5291 39.8653C65.5169 39.9081 65.5041 39.9508 65.4908 39.993C65.4669 40.0713 65.4403 40.149 65.4125 40.2261L65.3914 40.2839L65.3809 40.3127C65.3787 40.3183 65.3842 40.3222 65.387 40.3255L65.397 40.3371L65.478 40.4298C65.5319 40.4915 65.5857 40.552 65.6395 40.6208L65.72 40.7213C65.7483 40.7568 65.7683 40.7801 65.8111 40.84C66.1219 41.248 66.3967 41.6827 66.6431 42.1328C67.1388 43.0321 67.4852 44.0123 67.6889 45.0198C67.7999 45.5927 67.861 46.1755 67.8721 46.7583C67.8854 47.3412 67.846 47.9257 67.7583 48.5024L67.755 48.5007Z" fill="#E61E27"/>
<path d="M66.615 45.2283C66.433 44.3313 66.1255 43.457 65.6819 42.6533C65.4616 42.2514 65.2162 41.8617 64.9376 41.4959C64.9109 41.4559 64.8515 41.3866 64.8038 41.3272L64.6539 41.144L64.579 41.0524L64.5418 41.0063L64.5102 40.9591L64.3842 40.7699L64.2582 40.5806L64.2426 40.5567C64.2376 40.5489 64.2304 40.5412 64.2321 40.5312L64.2404 40.4773L64.257 40.3696C64.2654 40.2992 64.2865 40.2214 64.3037 40.1465C64.3131 40.1088 64.3198 40.071 64.332 40.0327L64.3681 39.9173C64.3969 39.834 64.423 39.7502 64.448 39.6664L64.4857 39.5404L64.5141 39.4349C64.5307 39.3755 64.5457 39.315 64.5596 39.255C64.5746 39.1951 64.5884 39.1346 64.6012 39.0741C64.7117 38.5679 64.7755 38.0516 64.7916 37.5326C64.8032 37.2734 64.7849 37.0142 64.7783 36.755C64.7783 36.69 64.7699 36.6256 64.7633 36.5612L64.7433 36.3681C64.7289 36.2393 64.7217 36.1094 64.695 35.9823L64.629 35.5993C64.6201 35.5349 64.6012 35.4727 64.5868 35.4094L64.5407 35.2207L64.4946 35.032C64.4808 34.9687 64.4569 34.9082 64.4386 34.846L64.3214 34.4752C64.277 34.3537 64.2271 34.2338 64.181 34.1128L64.1105 33.9318L64.0278 33.7558C63.9717 33.6387 63.919 33.5205 63.8607 33.4045L63.6726 33.0642C63.6459 33.0176 63.622 32.9698 63.5937 32.9243L63.5066 32.7889L63.3334 32.518C63.3056 32.4719 63.2723 32.4297 63.2407 32.3865L63.1452 32.2571C63.0808 32.1711 63.0203 32.0828 62.9532 31.999L62.7461 31.7525C62.6773 31.6704 62.6096 31.5866 62.5335 31.5111C62.3842 31.3568 62.2421 31.1952 62.08 31.0543L61.8436 30.8356C61.762 30.7656 61.6776 30.6996 61.5943 30.6313L61.4694 30.5291C61.4278 30.4953 61.3867 30.4603 61.3423 30.4303L61.2058 30.3332C61.1447 30.2905 61.087 30.2466 61.0237 30.2044L60.8339 30.0773C60.7739 30.034 60.7223 29.9891 60.6657 29.9446L60.3343 29.6782L60.2516 29.6116C60.2449 29.6055 60.2366 29.6016 60.2327 29.5933C60.2294 29.585 60.231 29.5772 60.2299 29.5689L60.2272 29.52C60.2249 29.4884 60.2238 29.4545 60.2227 29.4206C60.221 29.3873 60.2205 29.3529 60.2205 29.318C60.2199 29.1786 60.2271 29.0299 60.2499 28.8783C60.2688 28.7512 60.2843 28.6241 60.296 28.4975C60.3076 28.3616 60.3115 28.2888 60.316 28.1967C60.3243 28.018 60.3271 27.8387 60.321 27.6594C60.3093 27.1437 60.2488 26.6297 60.1356 26.1268C60.0207 25.6244 59.8564 25.1332 59.646 24.6619C59.4367 24.1901 59.1775 23.7405 58.8783 23.3186C58.5791 22.8968 58.2422 22.5004 57.8686 22.1413C57.2947 21.5851 56.6385 21.1138 55.9336 20.7353C55.8442 20.6898 55.7571 20.6409 55.6666 20.5982L55.3952 20.4699L55.1187 20.3517C55.0255 20.3129 54.9283 20.2784 54.8334 20.2413L54.7618 20.2141L54.6636 20.1813L54.4621 20.1152C54.396 20.0925 54.325 20.0731 54.2633 20.047L54.0802 19.9659L53.897 19.8849L53.8742 19.8749C53.867 19.8716 53.8581 19.8688 53.8537 19.861L53.832 19.8155L53.7888 19.725L53.7022 19.5435C53.6744 19.4819 53.6417 19.4264 53.6194 19.357L53.5334 19.1211L53.4907 19.0029L53.469 18.944C53.4618 18.9235 53.4574 18.914 53.4513 18.8985C53.4052 18.7864 53.3608 18.6737 53.313 18.5621C53.2636 18.4517 53.2159 18.3401 53.1648 18.2302C53.1121 18.1214 53.061 18.0115 53.0066 17.9038C52.7691 17.4336 52.4993 16.9813 52.1984 16.5527C51.8976 16.1242 51.5651 15.7196 51.1987 15.3515C50.4699 14.6127 49.6095 14.0105 48.6609 13.6413L48.4827 13.573L48.3018 13.5137L48.2113 13.4837L48.1197 13.4581L47.9365 13.4071C47.6906 13.3488 47.4425 13.2955 47.1916 13.2678C46.9407 13.2339 46.6887 13.2239 46.4345 13.2217L46.0437 13.2311C45.9138 13.2372 45.785 13.25 45.6551 13.2583C44.6243 13.3532 43.6202 13.6397 42.7432 14.1548C42.6666 14.1997 42.5933 14.2497 42.5178 14.2969C42.444 14.3457 42.3657 14.389 42.2963 14.4445C42.1548 14.5517 42.0071 14.651 41.8756 14.7715L41.6724 14.9447L41.4537 15.1584C41.27 15.3338 41.1107 15.5514 40.943 15.754L40.8809 15.8311L40.8498 15.8694C40.8392 15.8816 40.8292 15.8911 40.8187 15.9022L40.6944 16.0271C40.6111 16.1098 40.5278 16.1914 40.444 16.2713C40.3996 16.3157 40.3674 16.3401 40.3313 16.3712L40.2248 16.4611L40.0116 16.641C40.0072 16.6443 39.9972 16.6449 39.9922 16.6415C39.9877 16.6382 39.9833 16.6343 39.9789 16.6304L39.9522 16.6077L39.8989 16.5627L39.7924 16.4728L39.6858 16.3829L39.6325 16.3379L39.6058 16.3152C39.5975 16.3079 39.5853 16.2963 39.5753 16.2868C39.4915 16.2069 39.4082 16.1259 39.325 16.0432C39.2417 15.9582 39.1601 15.8861 39.0752 15.7728L38.8615 15.5092C38.7899 15.4215 38.7205 15.331 38.6417 15.2544C38.6034 15.215 38.5651 15.1733 38.5268 15.1373L38.4235 15.0362L38.3414 14.9558C38.3142 14.9286 38.2836 14.9058 38.2548 14.8803C38.025 14.6788 37.7835 14.49 37.5276 14.3241C37.1035 14.0454 36.6473 13.8151 36.1654 13.6469C35.6842 13.477 35.1813 13.3616 34.6689 13.295L34.4769 13.27C34.413 13.2611 34.3475 13.2594 34.2832 13.2539L34.0889 13.2394L33.9917 13.2322L33.894 13.23C33.7642 13.2278 33.6326 13.2217 33.5044 13.2222C33.3784 13.2267 33.2513 13.225 33.1258 13.2378L32.9371 13.2522L32.7489 13.2761L32.6551 13.2877L32.5618 13.3044L32.3753 13.3371C32.1283 13.3915 31.8819 13.4504 31.6421 13.5342C31.1597 13.6924 30.6979 13.9161 30.2616 14.1847C29.8236 14.4517 29.4173 14.7737 29.0382 15.1267C28.6591 15.4798 28.3127 15.8722 27.9985 16.2896C27.6838 16.707 27.4007 17.1511 27.1498 17.6135C26.9416 17.9998 26.7551 18.3989 26.5908 18.808L26.5597 18.8846C26.5492 18.9107 26.5398 18.9318 26.5259 18.9718L26.4476 19.1866L26.3693 19.4014C26.3405 19.4697 26.3072 19.533 26.2767 19.599L26.1828 19.7955L26.1595 19.8444C26.1551 19.8521 26.1529 19.8616 26.1462 19.8682C26.1395 19.8743 26.1301 19.876 26.1223 19.8804L26.023 19.9243L25.8248 20.012L25.7255 20.0559C25.691 20.0697 25.6533 20.0803 25.6178 20.093L25.313 20.193L25.2747 20.2052C25.2625 20.2091 25.2475 20.2141 25.2403 20.2168L25.1859 20.2374L25.0777 20.2784C24.9306 20.3317 24.7935 20.3928 24.6536 20.4522C24.3777 20.5765 24.1052 20.7103 23.8432 20.8629C23.3158 21.1616 22.8246 21.5207 22.3722 21.922C21.9853 22.2673 21.6328 22.6503 21.317 23.06C21.0011 23.4702 20.7242 23.9092 20.4955 24.3722C20.2657 24.8346 20.0808 25.3186 19.9448 25.8154C19.8116 26.3133 19.7283 26.8245 19.6956 27.3385L19.6856 27.4928L19.6823 27.6477C19.6801 27.751 19.6767 27.8542 19.6795 27.9575C19.6812 28.0607 19.6845 28.1639 19.6906 28.2666L19.6956 28.3438L19.7028 28.4376C19.7078 28.5064 19.7156 28.5814 19.7239 28.6541C19.7389 28.7995 19.7683 28.9483 19.7761 29.0909C19.7861 29.2336 19.7844 29.3701 19.7777 29.4978L19.7716 29.5922C19.77 29.6016 19.7622 29.6055 19.7555 29.611L19.7356 29.6271L19.6956 29.6593L19.5363 29.7887L19.2182 30.0479C19.1255 30.1073 19.0339 30.17 18.9423 30.2316L18.707 30.3998L18.6115 30.4675L18.521 30.5414L18.3395 30.689C18.2796 30.739 18.2174 30.7861 18.1591 30.8378L17.9876 30.9971C17.8733 31.1031 17.7561 31.2063 17.6518 31.3224L17.4903 31.4917C17.437 31.5483 17.3809 31.6032 17.3326 31.6643L17.0323 32.0223L16.7553 32.3987C16.7326 32.4303 16.7081 32.4603 16.687 32.4936L16.6243 32.5918L16.4983 32.7883C16.4634 32.8433 16.4278 32.8971 16.394 32.9526L16.3002 33.123C16.2385 33.2374 16.1725 33.349 16.1142 33.4644C16.006 33.7003 15.8861 33.9307 15.7989 34.1749L15.7279 34.3559L15.6923 34.4464C15.6812 34.4769 15.6724 34.508 15.6624 34.5391L15.5452 34.9099C15.5358 34.9409 15.5247 34.9715 15.5164 35.0026L15.4936 35.0969L15.4476 35.2856C15.4181 35.4117 15.3815 35.5365 15.3637 35.6648L15.2971 36.0478C15.2838 36.1111 15.2805 36.176 15.2733 36.2404L15.2533 36.4336C15.2177 36.6906 15.2211 36.9509 15.2094 37.2101C15.2028 37.7291 15.2483 38.2476 15.3388 38.7577C15.3687 38.9231 15.402 39.0874 15.442 39.2506C15.4609 39.3322 15.4831 39.4132 15.5047 39.4943C15.5214 39.5576 15.5386 39.6097 15.5558 39.668C15.5736 39.7246 15.5897 39.7818 15.608 39.8384L15.6629 40.0083L15.6768 40.051L15.6868 40.0927L15.7062 40.1759L15.7256 40.2592L15.7351 40.3008L15.7412 40.3408L15.7656 40.4995C15.7673 40.5129 15.7712 40.5256 15.7706 40.5395C15.7662 40.5528 15.7562 40.5634 15.749 40.575L15.7029 40.6444L15.6102 40.7837L15.5175 40.9231L15.4714 40.9925C15.4564 41.0158 15.4348 41.0385 15.4165 41.0613L15.1872 41.3416L15.13 41.4115L15.1012 41.4465L15.0806 41.4743L15.0029 41.5814L14.8475 41.7951L14.7015 42.0155L14.6282 42.1254C14.6049 42.1626 14.5827 42.2009 14.56 42.2386L14.424 42.4651C14.3796 42.5411 14.3396 42.62 14.2974 42.6966C14.2563 42.7743 14.2114 42.8503 14.1747 42.9302C14.0987 43.089 14.0188 43.2461 13.9533 43.4093C13.9194 43.4903 13.8822 43.5702 13.8511 43.6524L13.759 43.8994C13.744 43.9405 13.7279 43.9816 13.7129 44.0232L13.673 44.1486L13.5919 44.3995L13.5225 44.6538C13.4998 44.7387 13.4748 44.8231 13.4581 44.9091C13.3388 45.4153 13.2627 45.9321 13.2361 46.4517C13.2095 46.9712 13.2211 47.4936 13.2827 48.0104C13.3443 48.5271 13.4509 49.0378 13.6002 49.5363C13.6347 49.6617 13.6802 49.7838 13.7201 49.9076C13.7618 50.0309 13.8106 50.1513 13.8556 50.2734C13.9066 50.3928 13.9544 50.5143 14.0082 50.6326C14.0637 50.7502 14.1148 50.8701 14.1759 50.985C14.4095 51.4502 14.6815 51.897 14.9902 52.3178C15.2999 52.7374 15.6435 53.1327 16.0171 53.4985C16.3895 53.8654 16.7942 54.1984 17.2216 54.4998L17.382 54.6125L17.5463 54.7196C17.6546 54.7929 17.7678 54.859 17.8799 54.9267C17.9354 54.9611 17.9926 54.9933 18.0498 55.0249L18.1625 55.0877L18.2829 55.1526C18.4433 55.2392 18.6093 55.3213 18.7647 55.409L18.989 55.5678L19.1011 55.6472C19.1061 55.65 19.11 55.6544 19.1122 55.6605C19.1139 55.666 19.1139 55.6722 19.115 55.6777L19.1194 55.7121L19.1283 55.781L19.1644 56.0574L19.1827 56.1956C19.186 56.2439 19.1855 56.2961 19.1871 56.346L19.1949 56.8062L19.196 56.8639C19.196 56.8822 19.196 56.905 19.1977 56.9166L19.2049 57.0005L19.2188 57.1687C19.2315 57.3935 19.2676 57.6155 19.297 57.8381C19.3731 58.2805 19.4641 58.7223 19.6046 59.1497L19.6534 59.3113C19.6712 59.3646 19.6912 59.4173 19.71 59.47L19.8249 59.787L19.9565 60.0978C19.9787 60.1494 19.9992 60.2022 20.0231 60.2527L20.0969 60.4048C20.2856 60.8139 20.5171 61.2019 20.7625 61.5799L20.9845 61.903L21.2221 62.2155L21.2815 62.2937L21.3447 62.3687L21.4713 62.5191L21.5979 62.6695L21.7316 62.8133L21.8654 62.9571L21.932 63.0292L22.002 63.098L22.2828 63.3734L22.5765 63.6348L22.6497 63.7003L22.7263 63.7625L22.8795 63.8863C23.6961 64.5457 24.617 65.0752 25.5906 65.471C26.0796 65.6642 26.5797 65.8307 27.091 65.9556C27.2181 65.9889 27.348 66.0122 27.4762 66.0416L27.6694 66.0833L27.8642 66.1155C27.9941 66.1355 28.1234 66.1615 28.2539 66.1776L28.6463 66.2243C29.6893 66.3264 30.7695 66.2937 31.8219 66.1543C32.8744 66.0128 33.9085 65.7513 34.8799 65.3506C35.3656 65.1502 35.8352 64.9154 36.2815 64.6445C36.7272 64.3736 37.1479 64.0639 37.5376 63.722C37.6098 63.6587 37.6825 63.596 37.7508 63.5282C37.819 63.4611 37.8918 63.3978 37.9572 63.3279L38.1565 63.1208L38.3558 62.8971C38.5257 62.684 38.6983 62.4769 38.8493 62.2349L38.9664 62.0589L39.0835 61.888L39.2006 61.717L39.2301 61.6743C39.24 61.6604 39.2495 61.6448 39.2595 61.6354L39.3178 61.5705L39.4349 61.4406L39.4932 61.3756C39.5126 61.354 39.5326 61.3312 39.5492 61.3151L39.7563 61.1025L39.7818 61.0759L39.8035 61.052L39.8473 61.0043L39.935 60.9088L39.9789 60.8611L39.99 60.8489C39.9933 60.845 39.9966 60.84 40.0049 60.84C40.0138 60.84 40.0172 60.8444 40.0205 60.8483L40.0316 60.8605L40.1193 60.956L40.207 61.0515L40.2286 61.0753L40.2542 61.102L40.3058 61.1553L40.409 61.2618C40.4446 61.2985 40.4757 61.3284 40.5167 61.3756L40.751 61.6348C40.7604 61.6443 40.7704 61.6593 40.7804 61.6732L40.8098 61.7148L40.8692 61.7986L40.988 61.9657C41.0385 62.055 41.0951 62.135 41.1495 62.2177L41.3138 62.4647C41.3721 62.5413 41.4321 62.6162 41.4909 62.6917L41.5797 62.805C41.5947 62.8238 41.6091 62.8427 41.6241 62.861L41.6741 62.9188C41.7646 63.0187 41.8506 63.1219 41.9466 63.2168L42.0871 63.3623L42.233 63.5021C42.983 64.2188 43.8716 64.7905 44.8281 65.2196C45.785 65.6498 46.8108 65.9395 47.8594 66.1044C48.3834 66.1871 48.914 66.2404 49.4463 66.2653C49.5796 66.2698 49.7128 66.277 49.846 66.2792C49.9792 66.2798 50.1136 66.2848 50.2457 66.2826L50.6409 66.2731L50.7397 66.2709L50.8385 66.2637L51.0355 66.2498C51.2992 66.237 51.5595 66.1976 51.8215 66.1682C52.0808 66.1232 52.3422 66.0872 52.5981 66.0261C52.8568 65.9762 53.1093 65.9023 53.3641 65.8363C53.6145 65.7558 53.8676 65.6831 54.1124 65.5865C54.2356 65.541 54.3599 65.4977 54.4798 65.4438C54.6008 65.3922 54.7224 65.3428 54.8429 65.2895L55.1987 65.1197C55.2586 65.0925 55.3163 65.0614 55.3741 65.0297L55.5478 64.9365C56.008 64.6839 56.4559 64.4058 56.8722 64.0866C57.2902 63.7691 57.6877 63.4255 58.0551 63.0514C58.4198 62.6751 58.7567 62.2732 59.062 61.8486L59.2652 61.5527C59.3324 61.4539 59.3918 61.3501 59.4556 61.2491L59.55 61.0964L59.636 60.9393C59.6926 60.8339 59.7531 60.7312 59.8064 60.624C60.0234 60.1983 60.2033 59.7553 60.3582 59.3046C60.5047 58.8506 60.619 58.3871 60.7006 57.9175C60.719 57.7998 60.7334 57.6816 60.75 57.5633C60.7578 57.5045 60.7672 57.4451 60.7734 57.3862L60.7878 57.2081L60.8022 57.0299L60.8094 56.9405C60.8105 56.9244 60.8122 56.9133 60.8128 56.8939L60.8139 56.8328L60.8216 56.3449L60.8239 56.2511L60.825 56.2045L60.8305 56.1617L60.8527 55.9902L60.8749 55.8187L60.886 55.7332L60.8916 55.6905C60.8949 55.6766 60.8916 55.6599 60.9032 55.65L61.1075 55.5056L61.2096 55.4335L61.2607 55.3974L61.3212 55.3657C61.4827 55.2803 61.6448 55.1976 61.8064 55.1099L62.0162 54.9933C62.0739 54.9622 62.1283 54.9261 62.1849 54.8928L62.3526 54.7912L62.5169 54.6841C62.9543 54.3971 63.37 54.0768 63.7547 53.7227C64.1399 53.3697 64.4974 52.9867 64.8216 52.5776C65.1441 52.1674 65.4322 51.7305 65.6825 51.2737C65.748 51.161 65.803 51.0428 65.8629 50.9273C65.9206 50.8107 65.9734 50.6914 66.0283 50.5737C66.1305 50.3345 66.2281 50.093 66.3103 49.846C66.4774 49.3531 66.6028 48.8469 66.6833 48.3329C66.761 47.8189 66.7966 47.2976 66.7843 46.777C66.7743 46.2563 66.7205 45.7373 66.6211 45.2266L66.615 45.2283ZM63.9284 51.8804C63.6426 52.2406 63.3273 52.5792 62.987 52.8912C62.6473 53.2043 62.2787 53.4879 61.8913 53.7421L61.7459 53.8371L61.5971 53.927C61.5471 53.9564 61.4988 53.9886 61.4478 54.0158L61.178 54.1646L60.9932 54.2595L60.8111 54.3566L60.447 54.5514L60.3559 54.6003L60.296 54.6652L60.1766 54.7957L59.9374 55.056C59.9246 55.0732 59.9202 55.0927 59.9135 55.1126L59.8947 55.1709L59.8569 55.288L59.7814 55.5223L59.7059 55.7565L59.6871 55.8148C59.6854 55.8376 59.6859 55.862 59.6854 55.8853L59.6832 56.028L59.6798 56.7418V56.8423L59.6787 56.8478L59.6776 56.8578L59.676 56.8772L59.6693 56.9555L59.6565 57.112L59.6443 57.2686C59.6388 57.3207 59.6304 57.3724 59.6232 57.424C59.6082 57.5272 59.596 57.6316 59.5805 57.7348C59.5083 58.1467 59.4084 58.5536 59.2796 58.9527C59.1431 59.349 58.9849 59.7387 58.7939 60.1139C58.7473 60.2083 58.6929 60.2988 58.6435 60.392L58.568 60.5308L58.4847 60.6657C58.4281 60.755 58.3765 60.8472 58.3166 60.9343L58.1367 61.1963C57.0643 62.7106 55.4856 63.879 53.7155 64.5307C53.4957 64.6173 53.2681 64.6823 53.0433 64.755C52.814 64.8133 52.5876 64.881 52.3544 64.9254C52.1241 64.9809 51.8887 65.012 51.6556 65.0536C51.4197 65.0791 51.1849 65.1158 50.9473 65.1269L50.7697 65.1396L50.6808 65.1463L50.5915 65.148L50.2346 65.1563C50.1147 65.1585 49.9875 65.1541 49.8649 65.1535C49.7411 65.1519 49.6179 65.1446 49.4941 65.1408C49.0006 65.1174 48.5116 65.0686 48.0309 64.9925C47.0689 64.841 46.1392 64.5768 45.2854 64.1927C44.4317 63.8097 43.6541 63.3068 43.0052 62.6862L42.8786 62.5652L42.7576 62.4397C42.6743 62.3581 42.6011 62.2682 42.5222 62.1822L42.5006 62.1577L42.49 62.1461L42.4851 62.1405L42.4767 62.13L42.4429 62.0884C42.4201 62.06 42.399 62.0301 42.3768 62.0012L42.2458 61.8264C42.1587 61.7087 42.0704 61.5949 41.9849 61.4744L41.7473 61.072C41.6685 60.9371 41.5875 60.8083 41.5142 60.6579L41.3299 60.4059L41.2378 60.2799L41.1917 60.2166L41.169 60.185L41.1634 60.1772L41.1573 60.1733L41.1456 60.165L40.7637 59.9063L40.716 59.8741C40.7121 59.8714 40.7077 59.8686 40.7044 59.8664L40.6944 59.863L40.6744 59.8564L40.5939 59.8308L40.4335 59.7792L40.353 59.7537C40.3402 59.7498 40.3252 59.7442 40.3136 59.7415L40.283 59.7387L40.1598 59.727L40.0366 59.7154C40.0216 59.7126 39.9789 59.7126 39.9644 59.7154L39.9028 59.7215L39.7796 59.7331L39.718 59.7392L39.6874 59.742C39.6752 59.7448 39.6608 59.7503 39.648 59.7542L39.3266 59.8569L39.3067 59.8636L39.2967 59.8669L39.285 59.8747L39.2373 59.9069L39.1418 59.9718L38.9508 60.1012L38.8554 60.1661C38.8393 60.1722 38.8243 60.1983 38.8093 60.2199L38.7643 60.286L38.585 60.5497L38.4058 60.8139L38.237 61.1003C38.0216 61.5027 37.7641 61.8125 37.5137 62.1433L37.3245 62.3559L37.1518 62.5346C37.0958 62.5951 37.0325 62.6495 36.9731 62.7078C36.9142 62.7661 36.851 62.8205 36.7882 62.8755C36.4502 63.1724 36.0833 63.4428 35.6903 63.682C35.2973 63.9201 34.8804 64.1294 34.4458 64.3087C33.576 64.6673 32.6362 64.9071 31.6682 65.0369C31.1841 65.1019 30.6923 65.1402 30.1978 65.153L29.8258 65.158L29.4684 65.1496C29.409 65.1474 29.349 65.1485 29.2902 65.1446L29.1126 65.1319L28.9349 65.1197C28.8755 65.1158 28.8162 65.1119 28.7579 65.1036L28.4043 65.0619C28.2866 65.048 28.1706 65.0236 28.0535 65.0059L27.8781 64.977L27.7043 64.9393C27.5889 64.9132 27.4723 64.8926 27.358 64.8621C26.8983 64.75 26.4493 64.5995 26.0102 64.4269C25.1365 64.0717 24.3117 63.5971 23.5828 63.0081L23.4463 62.8977L23.378 62.8427L23.3125 62.7844L23.0505 62.5513L22.8007 62.3059L22.738 62.2449L22.6786 62.1805L22.5598 62.0523L22.441 61.9246L22.3289 61.7908L22.2162 61.6576L22.1602 61.591L22.1074 61.5216L21.8965 61.2446L21.7 60.9582C21.4835 60.6235 21.2781 60.281 21.1127 59.9208L21.0472 59.787C21.0261 59.742 21.0084 59.6959 20.9889 59.6504L20.8729 59.3768L20.7719 59.0981C20.7552 59.0515 20.7369 59.0054 20.7219 58.9588L20.6792 58.8173C20.5554 58.442 20.4772 58.054 20.4094 57.666C20.3845 57.4701 20.3517 57.2758 20.3412 57.0782L20.3289 56.9305L20.3228 56.8567V56.8473C20.3228 56.8473 20.3217 56.8345 20.3217 56.8289V56.7029L20.3178 56.0302L20.3162 55.9153L20.3151 55.8581C20.314 55.8392 20.3167 55.8181 20.3095 55.8043L20.249 55.6155L20.1274 55.2386L20.0969 55.1443L20.0819 55.0971C20.0792 55.0893 20.0775 55.081 20.0736 55.0743C20.0686 55.0671 20.0653 55.0593 20.0597 55.0538L19.9282 54.9106L19.6651 54.6242C19.6495 54.6003 19.6134 54.587 19.5846 54.5703L19.4935 54.5215L19.3115 54.4243C19.1899 54.3599 19.07 54.2939 18.9468 54.2306C18.8857 54.1984 18.8219 54.1679 18.7631 54.1351L18.6049 54.0469C18.5538 54.0191 18.5033 53.9908 18.4544 53.9597C18.3556 53.8992 18.2546 53.8409 18.1591 53.776L18.0131 53.6811L17.871 53.5812C17.4925 53.3142 17.1339 53.0189 16.8047 52.6947C16.475 52.3716 16.1719 52.023 15.8994 51.6534C15.628 51.2831 15.3893 50.8907 15.1839 50.4827C15.13 50.3822 15.0856 50.2768 15.0368 50.1741C14.9891 50.0703 14.948 49.9642 14.903 49.8599C14.8642 49.7528 14.8209 49.6473 14.7848 49.5396C14.7504 49.4314 14.7098 49.3248 14.6799 49.2149C14.5494 48.7791 14.4567 48.3334 14.4023 47.8821C14.3485 47.4308 14.3385 46.9729 14.3618 46.5183C14.3851 46.0637 14.4517 45.6124 14.5561 45.17C14.5705 45.0945 14.5927 45.0207 14.6127 44.9469L14.6732 44.7243L14.7443 44.505L14.7792 44.3951C14.792 44.359 14.8064 44.3229 14.8198 44.2869L14.9002 44.0704C14.928 43.9988 14.9607 43.9288 14.9902 43.8578C15.0473 43.7146 15.1178 43.5775 15.1844 43.4381C15.2161 43.3676 15.256 43.3016 15.2921 43.2328C15.3293 43.165 15.3643 43.0962 15.4031 43.0296L15.523 42.8309C15.543 42.7976 15.5625 42.7643 15.583 42.7315L15.6474 42.6349L15.7756 42.4412L15.9127 42.253L15.981 42.1587L15.9893 42.147L15.9938 42.1409C15.9938 42.1409 15.996 42.1376 16.0004 42.1326L16.0432 42.0815L16.1286 41.9794L16.47 41.5714L16.5144 41.5198C16.5294 41.5026 16.5455 41.4854 16.5516 41.467L16.6027 41.3582L16.7043 41.1401L16.8058 40.922L16.8569 40.8132C16.8641 40.7948 16.8763 40.7776 16.8797 40.7577C16.8835 40.7382 16.8835 40.7199 16.8858 40.7005L16.9058 40.474L16.9107 40.4174C16.9096 40.3974 16.9058 40.3758 16.9035 40.3552L16.888 40.2303L16.8724 40.1054C16.8697 40.0843 16.868 40.0638 16.8641 40.0427L16.843 39.9783L16.7581 39.7219C16.7292 39.6364 16.7037 39.5503 16.6759 39.4649L16.6354 39.3366L16.6154 39.2722L16.606 39.2401L16.5949 39.1984C16.576 39.1285 16.5572 39.058 16.5411 38.9875C16.5061 38.8465 16.4772 38.7038 16.4517 38.5612C16.3734 38.1199 16.3335 37.6703 16.3396 37.2196C16.3512 36.9947 16.3462 36.7688 16.3784 36.5462L16.3956 36.3786C16.4017 36.3231 16.404 36.2665 16.4162 36.2115L16.4739 35.8801C16.4883 35.7686 16.5216 35.6614 16.5466 35.5521L16.586 35.3889L16.6055 35.3073C16.6127 35.2801 16.6227 35.254 16.6304 35.2268L16.732 34.906C16.7409 34.8793 16.7481 34.8521 16.7575 34.826L16.7886 34.7478L16.8502 34.5912C16.9246 34.3792 17.0306 34.1799 17.1228 33.9751C17.1733 33.8746 17.2316 33.778 17.2849 33.6787L17.3659 33.5305C17.3953 33.4827 17.427 33.4356 17.4569 33.3884L17.5663 33.2174L17.6207 33.1319C17.6385 33.1031 17.6607 33.077 17.6801 33.0498L17.921 32.7223L18.183 32.4103C18.2246 32.3565 18.2735 32.3093 18.3207 32.2599L18.4611 32.1122C18.5516 32.0107 18.6548 31.9213 18.7542 31.8286L18.9035 31.6893C18.9546 31.6443 19.009 31.6032 19.0611 31.5599L19.2193 31.4306L19.2982 31.3657L19.3814 31.3068L19.685 31.0887L20.1119 30.8211L20.5071 30.3887L20.7047 30.1722L20.7541 30.1184L20.7791 30.0912L20.7913 30.0779L20.7991 30.0612L20.8474 29.9408C20.9073 29.7748 20.9468 29.5811 20.9479 29.369C20.954 29.157 20.8918 28.9277 20.8663 28.709C20.8574 28.6535 20.8529 28.5991 20.8463 28.5436L20.8374 28.462L20.8307 28.386L20.8213 28.2694L20.8174 28.2034C20.8124 28.1157 20.8091 28.0274 20.808 27.9391C20.8058 27.8509 20.8091 27.7626 20.8108 27.6744L20.8135 27.5417L20.8224 27.4096C20.8502 26.97 20.9212 26.5342 21.0345 26.109C21.1505 25.6849 21.3087 25.2714 21.5052 24.8751C21.7006 24.4782 21.9392 24.1007 22.2118 23.7472C22.4843 23.3936 22.7885 23.0622 23.1243 22.7624C23.5168 22.415 23.9436 22.1019 24.4032 21.8421C24.6308 21.7089 24.869 21.5929 25.1093 21.4841L25.2919 21.4064L25.3375 21.3869L25.3869 21.3681L25.4868 21.3303L25.5867 21.2926L25.6366 21.2737C25.64 21.272 25.6666 21.2637 25.6838 21.2582L25.7416 21.2398L26.2039 21.0939L26.2866 21.0672L26.3277 21.0539C26.3422 21.05 26.3555 21.045 26.3655 21.0372L26.4987 20.9534L26.7646 20.7863L26.8978 20.7025C26.9083 20.6948 26.9211 20.6903 26.93 20.6803C26.9405 20.672 26.9455 20.6592 26.9533 20.6487L26.9966 20.5826L27.1703 20.3184L27.2569 20.1863L27.3002 20.1202C27.3135 20.0975 27.3319 20.0792 27.3391 20.0497L27.454 19.7256L27.5689 19.4014L27.5833 19.3609L27.59 19.3431L27.5933 19.3342L27.6077 19.2998L27.636 19.2304C27.7854 18.8597 27.9536 18.4988 28.1406 18.1514C28.3665 17.7356 28.6197 17.3398 28.8978 16.9702C29.1758 16.6005 29.4795 16.2563 29.8081 15.951C30.462 15.3365 31.2091 14.8669 31.9973 14.6061C32.1938 14.5367 32.3942 14.49 32.5946 14.4451L32.7461 14.419L32.8216 14.4051L32.8977 14.3957L33.0498 14.3763L33.203 14.3646C33.3046 14.3535 33.4072 14.3563 33.5099 14.3518C33.5344 14.3502 33.5632 14.3518 33.5921 14.3518L33.6776 14.354L33.8491 14.3579L33.9346 14.3596L34.0189 14.3663L34.1877 14.379C34.2437 14.384 34.3009 14.3851 34.3559 14.3929L34.5213 14.4146C34.9615 14.4723 35.3856 14.57 35.7858 14.711C36.1865 14.8503 36.5596 15.0407 36.907 15.2683C37.1169 15.4037 37.3145 15.5591 37.5049 15.7251C37.5287 15.7462 37.5543 15.7645 37.5765 15.7873L37.6442 15.8544L37.7768 15.9843C37.834 16.0348 37.8895 16.1026 37.9456 16.1642L38.0294 16.2585L38.0716 16.3057L38.111 16.359L38.2675 16.5716L38.5806 16.9968L38.6744 17.125L38.6977 17.1572C38.7055 17.1689 38.7138 17.1716 38.7222 17.1789L38.771 17.2166C38.8365 17.2666 38.902 17.316 38.9686 17.3637C39.1007 17.4597 39.2345 17.5519 39.3683 17.6396L39.3932 17.6562C39.4016 17.6618 39.4105 17.6679 39.416 17.6673L39.4554 17.6746L39.5342 17.689L39.6919 17.7184L39.8495 17.7478L39.9283 17.7623L39.9678 17.7695C39.9744 17.7706 39.9811 17.7722 39.9872 17.7728H40.0133L40.3286 17.7145L40.4862 17.6851C40.5406 17.6712 40.585 17.6812 40.6583 17.6218C40.7921 17.5336 40.9253 17.4409 41.0574 17.3443C41.1234 17.296 41.1889 17.2466 41.2544 17.1961C41.2705 17.1822 41.2872 17.1739 41.3027 17.155L41.3488 17.0928L41.4404 16.9685L41.8067 16.4706C41.8684 16.3884 41.9272 16.3002 41.9944 16.2313L42.0921 16.122L42.1409 16.067C42.157 16.0482 42.1737 16.0304 42.1903 16.016L42.2891 15.9205L42.3535 15.8567L42.4323 15.7784L42.6 15.6363C42.7082 15.5358 42.8298 15.4559 42.9458 15.3671C43.0024 15.3204 43.0668 15.2866 43.1273 15.2461C43.1889 15.2078 43.2488 15.1656 43.3116 15.1295C44.0287 14.7087 44.8608 14.4667 45.7545 14.3835C45.8672 14.3763 45.9787 14.3646 46.092 14.3596L46.4345 14.3513C46.4905 14.3502 46.5383 14.354 46.5904 14.3546C46.6415 14.3568 46.6931 14.3546 46.7436 14.3607C46.8458 14.369 46.9479 14.3735 47.0489 14.3896C47.2527 14.4112 47.453 14.4556 47.6534 14.5023L47.8027 14.5439L47.8771 14.5644L47.951 14.5894L48.0992 14.6377L48.2451 14.6943C49.0245 14.9974 49.7566 15.5036 50.3911 16.147C50.7103 16.4672 51.0033 16.8236 51.2703 17.2044C51.5379 17.5852 51.7794 17.9904 51.9936 18.4139C52.0425 18.5111 52.0885 18.6104 52.1363 18.7087C52.1823 18.808 52.2251 18.9091 52.27 19.009C52.3133 19.11 52.3533 19.2127 52.3955 19.3143L52.4033 19.3331L52.4072 19.3426L52.4144 19.362L52.446 19.4508L52.5093 19.629L52.6358 19.9854L52.6625 20.0608C52.6714 20.0858 52.688 20.103 52.7002 20.1241L52.7802 20.2462L52.9406 20.4899L53.0205 20.612L53.0605 20.6731L53.0738 20.6859L53.0893 20.6953L53.1199 20.7147L53.3658 20.869L53.6117 21.0234L53.6422 21.0428C53.6528 21.0489 53.6672 21.0511 53.6794 21.0561L53.756 21.0805L53.9086 21.1288L54.2139 21.226L54.3588 21.2726L54.4249 21.2976C54.5115 21.3314 54.6036 21.3636 54.6858 21.398L54.9267 21.5007L55.1637 21.6129C55.2425 21.6501 55.3186 21.6933 55.3963 21.7328C56.0107 22.0625 56.5819 22.4721 57.0787 22.9545C57.4029 23.2659 57.6932 23.6089 57.9513 23.972C58.2089 24.3355 58.432 24.7213 58.6108 25.1254C58.7906 25.529 58.931 25.9481 59.0293 26.3766C59.1259 26.8057 59.1775 27.2442 59.1875 27.6855C59.1936 27.8387 59.1908 27.9924 59.1836 28.1451L59.1769 28.2594L59.1753 28.2883L59.1708 28.3432L59.1597 28.4753C59.1403 28.6663 59.1131 28.8578 59.0776 29.0515C59.0354 29.2824 59.0448 29.505 59.0842 29.6993C59.0892 29.7237 59.0931 29.7487 59.0992 29.7726L59.1192 29.8408L59.1392 29.9091C59.1464 29.9313 59.1553 29.9508 59.1631 29.9718L59.188 30.034C59.1958 30.0534 59.2036 30.079 59.2241 30.0956L59.3285 30.2066L59.7453 30.6496L59.8497 30.7606L59.9019 30.8161C59.9191 30.8344 59.9346 30.8539 59.9618 30.8683L60.2571 31.052C60.3088 31.082 60.3498 31.1148 60.3948 31.1464L60.5275 31.2419L60.6585 31.3351C60.6979 31.3612 60.7334 31.3917 60.7695 31.4212L60.8783 31.5105C60.9504 31.5705 61.0248 31.6277 61.0959 31.6887L61.3018 31.8802C61.4439 32.0029 61.5666 32.145 61.6976 32.2788C61.7647 32.3443 61.823 32.4175 61.883 32.4891L62.0634 32.7034C62.1216 32.7761 62.1738 32.8538 62.2304 32.9282L62.3137 33.0409C62.3409 33.0786 62.3709 33.1147 62.3942 33.1552L62.5446 33.3906L62.6207 33.5077C62.6451 33.5471 62.6656 33.5893 62.6889 33.6298L62.8527 33.9251C62.9032 34.0256 62.9482 34.1289 62.997 34.2299L63.0697 34.382L63.1302 34.5391C63.1702 34.644 63.2135 34.7478 63.2524 34.8527L63.3534 35.1735C63.3689 35.2274 63.3906 35.2795 63.4022 35.3345L63.4416 35.4982L63.4816 35.6614C63.4944 35.7158 63.5116 35.7697 63.5182 35.8252L63.5754 36.1566C63.5993 36.2665 63.6043 36.3792 63.617 36.4907L63.6348 36.6584C63.6409 36.7144 63.6481 36.7699 63.6481 36.8266C63.6526 37.0514 63.6703 37.2762 63.6598 37.5015C63.6459 37.9517 63.591 38.3986 63.4949 38.8365C63.4838 38.8887 63.4722 38.9409 63.4588 38.993C63.4466 39.0452 63.4339 39.0968 63.4194 39.1485L63.4089 39.1873L63.3989 39.2262L63.3845 39.275L63.3251 39.4643L63.2651 39.6536L63.198 39.8423L63.1447 40.0172C63.1336 40.0466 63.133 40.0743 63.1291 40.1027L63.1186 40.1876C63.1069 40.2997 63.0803 40.4185 63.0997 40.5167L63.113 40.6705L63.1197 40.7477L63.1236 40.7676L63.1319 40.786L63.1491 40.8232L63.2873 41.1196L63.4255 41.416C63.4372 41.4404 63.4483 41.4654 63.4605 41.4898L63.5166 41.557L63.6287 41.6907L63.853 41.9583C63.9223 42.0416 64.0234 42.1587 64.0328 42.1781C64.2787 42.5001 64.4935 42.8425 64.6872 43.195C65.0769 43.9 65.3445 44.6643 65.5043 45.4475C65.5909 45.8938 65.6381 46.3473 65.6464 46.8031C65.657 47.2588 65.6264 47.715 65.5587 48.1641C65.4882 48.6132 65.3789 49.0556 65.2323 49.4863C65.1607 49.7022 65.0747 49.9132 64.9859 50.123C64.937 50.2262 64.8915 50.3306 64.841 50.4327C64.7877 50.5338 64.7405 50.6376 64.6828 50.7364C64.463 51.1371 64.2104 51.5213 63.9262 51.8826L63.9284 51.8804Z" fill="#E61E27"/>
<path d="M48.086 21.5588V25.1669C48.086 26.07 48.8209 26.8049 49.724 26.8049H53.1272C53.457 27.2462 53.9832 27.5326 54.5749 27.5326C55.5707 27.5326 56.3806 26.7228 56.3806 25.7269C56.3806 24.7311 55.5707 23.9212 54.5749 23.9212C53.5791 23.9212 52.7875 24.7139 52.7703 25.6947H49.7246C49.4332 25.6947 49.1967 25.4577 49.1967 25.1669V21.5588C49.9216 21.324 50.4473 20.6429 50.4473 19.8408C50.4473 18.845 49.6374 18.0352 48.6416 18.0352C47.6458 18.0352 46.8359 18.845 46.8359 19.8408C46.8359 20.6429 47.3616 21.324 48.0865 21.5588H48.086Z" fill="#E61E27"/>
<path d="M60.1505 48.9244V48.0956C60.1505 47.57 59.9517 47.0693 59.5904 46.6868L58.1816 45.1942C57.8274 44.819 57.329 44.6042 56.8133 44.6042H53.5072V41.1338H52.3971V47.2996C52.3971 47.5911 52.1601 47.8275 51.8692 47.8275H48.0508V48.9377H51.8692C52.7723 48.9377 53.5072 48.2028 53.5072 47.2996V45.7143H56.8133C57.0248 45.7143 57.2291 45.8026 57.3745 45.9563L58.7833 47.449C58.9493 47.6244 59.0403 47.8542 59.0403 48.0956V48.9244C58.3154 49.1592 57.7897 49.8403 57.7897 50.6423C57.7897 51.6382 58.5996 52.448 59.5954 52.448C60.5912 52.448 61.4011 51.6382 61.4011 50.6423C61.4011 49.8403 60.8754 49.1592 60.1505 48.9244Z" fill="#E61E27"/>
<path d="M20.4516 40.1358C21.4474 40.1358 22.2573 39.3259 22.2573 38.3301C22.2573 37.528 21.7316 36.8469 21.0067 36.6121V34.8614C21.0067 34.2275 21.5224 33.7118 22.1563 33.7118H24.6003C24.8623 33.7118 25.1132 33.8239 25.2886 34.0188L28.3676 37.4503L29.1942 36.7087L26.1151 33.2772C25.7299 32.8475 25.1776 32.6011 24.6009 32.6011H22.1568C20.9107 32.6011 19.8971 33.6147 19.8971 34.8608V36.6115C19.1721 36.8463 18.6465 37.5274 18.6465 38.3295C18.6465 39.3253 19.4563 40.1352 20.4522 40.1352L20.4516 40.1358Z" fill="#E61E27"/>
<path d="M29.9966 54.4684C29.3382 55.1534 28.9752 56.0537 28.9752 57.0035V59.7411C28.2503 59.9759 27.7246 60.657 27.7246 61.4591C27.7246 62.4549 28.5345 63.2648 29.5303 63.2648C30.5261 63.2648 31.336 62.4549 31.336 61.4591C31.336 60.657 30.8103 59.9759 30.0854 59.7411V57.0035C30.0854 56.3418 30.3379 55.7146 30.7964 55.2378L33.6812 52.2381L32.8808 51.4688L29.996 54.4684H29.9966Z" fill="#E61E27"/>
<path d="M51.0562 59.7411V56.8264C51.0562 55.9905 50.737 55.1983 50.1575 54.5961L47.15 51.4688L46.3496 52.2381L49.357 55.3654C49.7367 55.7601 49.9454 56.2791 49.9454 56.8264V59.7411C49.2205 59.9759 48.6948 60.657 48.6948 61.4591C48.6948 62.4549 49.5047 63.2648 50.5005 63.2648C51.4963 63.2648 52.3062 62.4549 52.3062 61.4591C52.3062 60.657 51.7805 59.9759 51.0556 59.7411H51.0562Z" fill="#E61E27"/>
<path d="M53.5813 33.04L50.2891 36.7091L51.115 37.4507L54.4072 33.7816C54.4466 33.7372 54.5038 33.7122 54.5632 33.7122H58.2667C58.3822 33.7122 58.476 33.806 58.476 33.9215V36.6125C57.751 36.8473 57.2254 37.5284 57.2254 38.3305C57.2254 39.3263 58.0352 40.1362 59.0311 40.1362C60.0269 40.1362 60.8367 39.3263 60.8367 38.3305C60.8367 37.5284 60.3111 36.8473 59.5861 36.6125V33.9215C59.5861 33.1938 58.9939 32.6021 58.2667 32.6021H54.5632C54.1891 32.6021 53.831 32.7619 53.5813 33.0406V33.04Z" fill="#E61E27"/>
<path d="M32.1872 48.9382V47.828H28.3688C28.0773 47.828 27.8409 47.591 27.8409 47.3001V41.1343H26.7307V44.6047H23.1737C22.6964 44.6047 22.2345 44.8039 21.907 45.1509L20.4794 46.6635C20.1036 47.0614 19.8971 47.5816 19.8971 48.1289V48.9249C19.1721 49.1597 18.6465 49.8407 18.6465 50.6428C18.6465 51.6387 19.4563 52.4485 20.4522 52.4485C21.448 52.4485 22.2578 51.6387 22.2578 50.6428C22.2578 49.8407 21.7322 49.1597 21.0072 48.9249V48.1289C21.0072 47.8663 21.1066 47.6165 21.287 47.4256L22.7147 45.913C22.8335 45.787 23.0011 45.7148 23.1737 45.7148H26.7307V47.3001C26.7307 48.2033 27.4656 48.9382 28.3688 48.9382H32.1872Z" fill="#E61E27"/>
</g>
<defs>
<clipPath id="clip0_79_1629">
<rect width="58" height="57.5065" fill="white" transform="translate(11 11)"/>
</clipPath>
</defs>
</svg>
