<svg width="80" height="80" viewBox="0 0 80 80" fill="none" xmlns="http://www.w3.org/2000/svg">
<g clip-path="url(#clip0_79_1710)">
<path d="M66.765 56.9197V37.1914L66.7639 33.8007C66.76 32.8054 66.361 31.8223 65.6764 31.1008C65.5869 31.0147 65.5031 30.9225 65.4064 30.8448C65.3589 30.8052 65.3142 30.7616 65.2645 30.7247L65.1152 30.6129C65.0672 30.5738 65.0124 30.5436 64.961 30.509C64.9079 30.4765 64.8587 30.4385 64.8034 30.41L64.6765 30.3396L64.6452 30.3223C64.6341 30.3184 64.6223 30.3161 64.6106 30.3128L64.5413 30.2955L62.9144 29.8841L59.6237 29.052L59.4175 28.9994L59.1889 28.9324C59.0353 28.8916 58.8888 28.8301 58.7407 28.7731C58.7038 28.758 58.6664 28.7457 58.6306 28.7284L58.5233 28.677L58.3087 28.573C58.2383 28.5361 58.1712 28.4942 58.1019 28.4545L57.9991 28.3942C57.9645 28.3746 57.9309 28.3539 57.8985 28.3305C57.3687 27.9806 56.9043 27.5318 56.5371 27.0121C56.1738 26.4895 55.9134 25.8949 55.7737 25.2717C55.7653 25.2326 55.753 25.1946 55.7474 25.1549L55.7284 25.0365L55.6915 24.8001C55.682 24.7207 55.6787 24.6413 55.6725 24.5614C55.668 24.4821 55.6591 24.4021 55.6585 24.3228L55.6574 24.206V23.1983L55.6563 23.1514L55.6541 23.058C55.6541 22.9954 55.6479 22.934 55.6434 22.8719C55.6406 22.8412 55.6395 22.8099 55.6362 22.7792L55.6244 22.6869C55.5931 22.4405 55.5384 22.1974 55.4613 21.9615C55.307 21.4898 55.0622 21.0478 54.7448 20.6655C54.4273 20.2827 54.0372 19.9602 53.6013 19.7221C53.166 19.4829 52.6859 19.3281 52.193 19.2672C51.9426 19.2348 51.7118 19.2337 51.4139 19.2353H42.0801C42.0108 19.2353 41.9354 19.2348 41.8711 19.2359L41.6844 19.2409L41.4983 19.2549L41.3133 19.2778C41.0674 19.3141 40.826 19.3734 40.5913 19.4555C40.1229 19.6187 39.6853 19.8719 39.3092 20.1966C38.9325 20.5213 38.6173 20.917 38.3865 21.3563C38.1557 21.7955 38.0076 22.2778 37.9562 22.7725C37.9495 22.8345 37.9467 22.8965 37.9411 22.9586C37.9361 23.0206 37.9372 23.0832 37.9349 23.1452L37.9299 23.3688C37.9299 23.4481 37.921 23.5269 37.9165 23.6063C37.8914 23.9226 37.836 24.2367 37.7522 24.5424C37.5829 25.1544 37.2967 25.7334 36.915 26.2397C36.5338 26.7472 36.0566 27.1814 35.5145 27.5117C34.9729 27.8431 34.3682 28.0711 33.7434 28.1796L30.3879 28.7278L23.6881 29.8204L16.9883 30.913L16.5697 30.9812L16.3853 31.0153L16.2037 31.0578C15.9634 31.1204 15.7286 31.2053 15.5045 31.3115C15.0557 31.5239 14.6478 31.8218 14.308 32.1845C13.9676 32.5466 13.6982 32.9753 13.5155 33.4363C13.3327 33.898 13.2377 34.3937 13.2383 34.8916V57.06L13.2405 57.1539C13.2422 57.2159 13.2428 57.2785 13.2489 57.34C13.2567 57.464 13.2718 57.5875 13.2914 57.7099C13.3311 57.9547 13.3942 58.1962 13.4797 58.4292C13.6507 58.8953 13.9117 59.3284 14.2426 59.699C14.5734 60.0701 14.9747 60.3786 15.4179 60.6021C15.8611 60.8262 16.3462 60.9643 16.8413 61.0084C16.9034 61.0123 16.9654 61.0196 17.0275 61.0207L17.2164 61.0252H62.8205L63.0072 61.0201L63.1933 61.0062C63.2553 61 63.3168 60.9905 63.3783 60.9833C63.6242 60.9475 63.8662 60.8883 64.1003 60.8072C64.5692 60.6451 65.0068 60.3925 65.3841 60.0684C65.7613 59.7448 66.0771 59.3491 66.309 58.9104C66.5409 58.4711 66.6902 57.9894 66.7416 57.4948C66.7539 57.3713 66.7628 57.2472 66.7639 57.1226C66.7662 57.0644 66.765 56.9879 66.7656 56.9186L66.765 56.9197ZM65.3036 58.3811C65.1387 58.6936 64.9129 58.9763 64.643 59.2083C64.3736 59.4402 64.0612 59.6196 63.7287 59.7347C63.5621 59.7923 63.3906 59.8342 63.2151 59.8599C63.1709 59.8644 63.1273 59.8717 63.0832 59.8761L62.9502 59.8862C62.9055 59.8862 62.8607 59.8879 62.816 59.8895H62.6109H55.8228H17.2136L17.0733 59.8862C17.0286 59.8862 16.9844 59.8795 16.9403 59.8773C16.5865 59.8454 16.2434 59.7476 15.9276 59.5883C15.6118 59.4296 15.3251 59.2088 15.0887 58.9439C14.8518 58.679 14.6662 58.37 14.5444 58.0391C14.484 57.8737 14.4393 57.7021 14.4108 57.5277C14.3974 57.4406 14.3857 57.3523 14.3806 57.2634C14.3756 57.2192 14.3756 57.1745 14.3745 57.1298L14.3722 57.0611V34.8928C14.3722 34.5356 14.4399 34.1847 14.5701 33.8555C14.7003 33.5274 14.892 33.2212 15.1357 32.9624C15.3788 32.7037 15.6694 32.4913 15.9885 32.3404C16.1478 32.2649 16.3143 32.204 16.4865 32.1593L16.6161 32.1291L16.7508 32.104L17.1694 32.0358L23.8692 30.9432L30.569 29.8506L33.9368 29.3001C34.7002 29.1677 35.4429 28.8882 36.1058 28.4819C36.7703 28.0767 37.3543 27.5452 37.8209 26.9243C38.2882 26.3045 38.6391 25.5953 38.8465 24.8453C38.9499 24.4703 39.0175 24.0852 39.0482 23.6979C39.0538 23.6013 39.0639 23.5046 39.065 23.4073L39.0683 23.262L39.0695 23.1927L39.0706 23.1592C39.0728 23.1145 39.0706 23.0698 39.0751 23.0251C39.0795 22.9809 39.0812 22.9362 39.0857 22.8921C39.122 22.5394 39.2276 22.1979 39.3919 21.885C39.5562 21.572 39.7815 21.2886 40.0508 21.0567C40.3197 20.8242 40.6315 20.6443 40.9646 20.5286C41.1312 20.4704 41.3027 20.4285 41.4777 20.4023L41.6095 20.3855C41.6537 20.3827 41.6984 20.3794 41.7426 20.3754L41.8767 20.3721H41.8935L41.9197 20.3715H51.4128C51.7414 20.3704 51.8643 20.3721 52.051 20.395C52.4025 20.4386 52.7423 20.5481 53.0525 20.7186C53.3627 20.8885 53.6421 21.1187 53.869 21.3926C54.0965 21.6659 54.2703 21.9811 54.3798 22.3159C54.4346 22.4835 54.4732 22.6562 54.4961 22.8317L54.505 22.8976C54.5078 22.9194 54.5084 22.9418 54.51 22.9641C54.5134 23.0083 54.5184 23.0525 54.5179 23.0977L54.5195 23.1648L54.5207 23.1994V24.2071L54.5223 24.3462C54.5235 24.4429 54.533 24.5424 54.5386 24.6402C54.5464 24.7386 54.5514 24.8369 54.5631 24.9347L54.6078 25.227L54.6319 25.3729C54.6391 25.4215 54.6531 25.469 54.6637 25.5171C54.8359 26.2872 55.1583 27.021 55.6054 27.6632C56.0564 28.3025 56.6254 28.853 57.2759 29.2817C57.3156 29.3102 57.357 29.3353 57.3989 29.3599L57.5246 29.4342C57.609 29.4829 57.6923 29.5337 57.7783 29.579L58.041 29.707L58.1729 29.7696C58.2171 29.7902 58.2629 29.8064 58.3082 29.8249C58.4892 29.8953 58.6698 29.9691 58.8581 30.0199L59.1381 30.1015L59.3449 30.1541L62.6355 30.9862L64.2227 31.3875L64.23 31.3914C64.2702 31.411 64.3043 31.4395 64.3423 31.4624C64.3787 31.4875 64.4189 31.5077 64.4524 31.5362C64.4876 31.563 64.5228 31.5898 64.5586 31.6155C64.5944 31.6412 64.6251 31.6736 64.6598 31.7016C64.7296 31.7558 64.7878 31.8234 64.8526 31.8838C65.3399 32.3991 65.6249 33.0993 65.6283 33.8091L65.6294 37.192V57.0751L65.6277 57.1086C65.6272 57.198 65.6205 57.2869 65.6121 57.3752C65.5758 57.7278 65.469 58.0693 65.3041 58.3817L65.3036 58.3811Z" fill="#E71324"/>
<path d="M68.9989 33.7857C68.9899 33.01 68.843 32.2315 68.5484 31.5122C68.4802 31.33 68.3919 31.1568 68.307 30.9818C68.2628 30.8952 68.2131 30.8119 68.1656 30.727L68.0929 30.6007C68.0678 30.5588 68.0404 30.5191 68.0141 30.4783L67.8526 30.2357L67.6766 30.0038C67.647 29.9652 67.6179 29.9267 67.5866 29.8892L67.491 29.7791C67.4268 29.7065 67.3636 29.6322 67.2966 29.5617C67.1585 29.4248 67.0244 29.284 66.8746 29.1599C66.8003 29.0973 66.7287 29.0308 66.6516 28.9721L66.4186 28.7966C66.342 28.7368 66.2582 28.6871 66.1771 28.6329C66.095 28.5815 66.0156 28.525 65.9295 28.4792L65.5629 28.2774L65.4701 28.226C65.4372 28.2143 65.402 28.2076 65.3679 28.1986L65.1622 28.1467L63.461 27.7163L60.1703 26.8842L59.9664 26.8322C59.9244 26.8188 59.882 26.8054 59.8395 26.7931C59.7529 26.773 59.6729 26.7349 59.5902 26.7048C59.5701 26.6964 59.5483 26.6908 59.5288 26.6807L59.4695 26.6511C59.4298 26.6316 59.3902 26.6126 59.3499 26.5947C59.3108 26.5746 59.2745 26.5494 59.2359 26.5282L59.1783 26.4952C59.1588 26.4846 59.1398 26.474 59.1225 26.46C58.829 26.2649 58.572 26.0157 58.3691 25.7312C58.1707 25.4439 58.0321 25.122 57.9561 24.7889C57.9516 24.7683 57.9432 24.7481 57.941 24.7264L57.932 24.6626C57.9259 24.6202 57.9186 24.5783 57.9114 24.5358C57.9063 24.4933 57.9063 24.4503 57.9024 24.4072C57.9002 24.3642 57.8935 24.3223 57.8935 24.2781L57.8924 23.4627V23.1978L57.8913 23.1263L57.8879 22.981C57.8868 22.8843 57.8784 22.7876 57.8711 22.6909C57.8672 22.6429 57.8639 22.5942 57.8588 22.5462L57.841 22.4014C57.7918 22.0164 57.7057 21.6347 57.5844 21.2647C57.3424 20.5242 56.9585 19.8323 56.4622 19.2354C55.9665 18.638 55.3584 18.1355 54.676 17.7617C53.9948 17.3872 53.2392 17.143 52.4679 17.0474L52.3232 17.0295L52.1784 17.0178C52.0817 17.01 51.9851 17.0033 51.8884 17.0021C51.6715 16.9954 51.5598 16.9982 51.4122 16.9977H41.8923L41.856 16.9982C41.7593 17.0005 41.6627 17.0021 41.566 17.0061L41.2759 17.0279C41.1792 17.0385 41.0831 17.0513 40.987 17.0636C40.6025 17.1206 40.2224 17.2134 39.8547 17.3419C39.1192 17.5979 38.4346 17.9947 37.8472 18.5016C37.2598 19.0079 36.768 19.6255 36.4059 20.314C36.0437 21.002 35.8118 21.7621 35.7313 22.5344C35.7213 22.6311 35.7151 22.7278 35.7078 22.8245C35.7006 22.9212 35.7006 23.0179 35.6978 23.1146L35.6939 23.2906C35.6944 23.3353 35.6877 23.3795 35.6866 23.4236C35.6726 23.6002 35.6419 23.7751 35.5955 23.9456C35.5011 24.286 35.3412 24.6084 35.1277 24.8918C34.9148 25.1757 34.6471 25.4194 34.3453 25.6027C34.0435 25.7871 33.7087 25.9134 33.3578 25.9749L31.3939 26.2957L31.1452 24.661C31.0452 24.0026 30.6942 23.4225 30.1582 23.0279C29.6217 22.6334 28.9639 22.4713 28.3055 22.5713L21.5767 23.5957C20.9183 23.6958 20.3382 24.0468 19.9437 24.5827C19.5491 25.1192 19.387 25.777 19.4871 26.4354L19.7548 28.1942L16.6267 28.7044L16.2082 28.7726L15.9254 28.8251L15.642 28.8916C15.2659 28.9889 14.8987 29.1225 14.5466 29.289C13.843 29.6221 13.2048 30.0888 12.6738 30.6549C12.1423 31.221 11.7209 31.8889 11.4348 32.6126C11.1475 33.3386 11 34.1182 11 34.8928V57.0612L11.0028 57.2042C11.005 57.3009 11.0073 57.3976 11.0156 57.4943C11.0279 57.6877 11.0514 57.881 11.0822 58.0727C11.1447 58.4567 11.2437 58.835 11.3778 59.2005C11.6461 59.9321 12.054 60.6094 12.571 61.1879C13.0874 61.7669 13.7128 62.2486 14.4075 62.5985C15.1016 62.9495 15.8656 63.1669 16.6385 63.2356C16.7352 63.2423 16.8319 63.2524 16.9285 63.2552L17.0738 63.2591L17.213 63.2619H62.8289L63.119 63.254L63.409 63.2323C63.5057 63.2227 63.6018 63.2093 63.698 63.197C64.0825 63.1412 64.4631 63.0484 64.8308 62.921C65.5668 62.6661 66.252 62.271 66.8405 61.7652C67.429 61.2594 67.9219 60.6435 68.2852 59.9556C68.6485 59.2682 68.8826 58.5086 68.9637 57.7363C68.9832 57.5435 68.9966 57.3495 68.9983 57.1562L69 57.0835V57.0259V56.9198V37.1915L68.9989 33.7857ZM20.5914 26.2705C20.5361 25.9073 20.6255 25.5445 20.8435 25.2483C21.0614 24.9521 21.3811 24.7588 21.7444 24.704L28.4732 23.6796C28.8365 23.6243 29.1992 23.7137 29.4954 23.9316C29.791 24.1496 29.985 24.4693 30.0397 24.8325L30.2901 26.479L30.0252 26.522L23.3254 27.6146L20.8569 28.017L20.5908 26.27L20.5914 26.2705ZM67.8627 50.7682V56.9203C67.8627 56.9924 67.8638 57.0572 67.861 57.1405C67.8593 57.2987 67.8487 57.4568 67.8325 57.615C67.7666 58.246 67.5754 58.8646 67.2787 59.4258C66.9825 59.9874 66.5795 60.491 66.0983 60.904C65.6177 61.3175 65.0583 61.64 64.458 61.8479C64.1579 61.9519 63.8483 62.0273 63.5342 62.0731C63.4554 62.0826 63.3772 62.0944 63.2978 62.1022L63.0608 62.1201L62.8233 62.1262H62.6087H55.8206H17.213L16.9777 62.1206C16.8984 62.1184 16.8196 62.11 16.7408 62.105C16.1092 62.0486 15.4866 61.8714 14.9205 61.5852C14.3538 61.2997 13.8424 60.9062 13.4205 60.4328C12.998 59.96 12.6649 59.4068 12.4464 58.8104C12.3374 58.512 12.2563 58.2035 12.2055 57.8905C12.1803 57.734 12.1608 57.5764 12.1513 57.4183C12.144 57.3395 12.1423 57.2601 12.1407 57.1808L12.1379 57.0628V34.8928C12.1379 34.2591 12.2586 33.6236 12.4922 33.0335C12.7258 32.4433 13.0701 31.8973 13.5043 31.4345C13.938 30.9718 14.4594 30.5906 15.0334 30.319C15.3201 30.1832 15.6202 30.0742 15.927 29.9949L16.1584 29.9407L16.3909 29.8976L16.8095 29.8294L23.5093 28.7368L30.2091 27.6442L33.5528 27.0977C34.5336 26.93 35.4407 26.3784 36.0353 25.5792C36.3343 25.1824 36.5585 24.7291 36.6909 24.2508C36.7563 24.0116 36.7999 23.7656 36.8194 23.5181C36.8222 23.456 36.8301 23.394 36.8301 23.332L36.8345 23.1313C36.8373 23.052 36.8368 22.9732 36.8429 22.8938C36.8491 22.815 36.8541 22.7356 36.8619 22.6568C36.9273 22.0259 37.1168 21.4066 37.4124 20.845C37.7075 20.2833 38.1093 19.7786 38.59 19.3645C39.07 18.9504 39.6289 18.6262 40.2286 18.4178C40.5281 18.3133 40.8383 18.2373 41.1524 18.1909C41.2312 18.1808 41.3094 18.1702 41.3882 18.1613L41.6252 18.1434L41.8627 18.1367C41.9399 18.1355 42.0058 18.1367 42.0779 18.1361H51.4117C51.6794 18.1344 52.0152 18.135 52.3265 18.1763C52.9564 18.254 53.5717 18.453 54.1283 18.7587C54.685 19.0638 55.1824 19.4746 55.5876 19.9631C55.9933 20.451 56.3063 21.0154 56.5036 21.6196C56.6025 21.9214 56.6723 22.2327 56.7126 22.5473L56.7277 22.6652C56.7321 22.7043 56.7344 22.744 56.7377 22.7837C56.7439 22.8625 56.7511 22.9419 56.7517 23.0212L56.7545 23.1397L56.7556 23.1989V23.4639L56.7567 24.3016C56.7567 24.3636 56.7651 24.4246 56.7685 24.4866C56.7735 24.5481 56.7752 24.6095 56.7824 24.671L56.8115 24.8538L56.8255 24.9449C56.8294 24.9756 56.8395 25.0047 56.8462 25.0349C56.9546 25.5155 57.1552 25.976 57.4374 26.3829C57.7236 26.7869 58.0863 27.1373 58.4999 27.4112C58.5245 27.4302 58.5513 27.4458 58.5787 27.4609L58.6591 27.5079C58.7128 27.5386 58.7653 27.5721 58.8201 27.6006L58.9878 27.6811L59.0716 27.7219C59.0995 27.7359 59.1292 27.7448 59.1582 27.7566C59.2745 27.8002 59.3885 27.8505 59.5086 27.8806L59.6869 27.9337L59.892 27.9857L63.1827 28.8179L64.8464 29.2387L64.9828 29.2734C65.0052 29.2795 65.0286 29.284 65.0504 29.2918L65.1119 29.3259L65.3567 29.4606C65.4271 29.4975 65.4914 29.5444 65.5584 29.5863C65.6244 29.6305 65.6931 29.6702 65.7552 29.7199L65.9458 29.863C66.0095 29.9105 66.067 29.9652 66.1279 30.0161C66.2509 30.1167 66.3593 30.2329 66.4728 30.3442C66.5275 30.4017 66.5784 30.4626 66.6309 30.5219L66.7092 30.6113C66.7343 30.642 66.7578 30.6739 66.7824 30.7052L66.9266 30.8947L67.0579 31.0931C67.0791 31.1266 67.1021 31.159 67.1227 31.1931L67.182 31.2965C67.2205 31.3658 67.2619 31.434 67.2977 31.5044C67.3659 31.6475 67.4396 31.7883 67.4944 31.9375C67.7358 32.5249 67.8543 33.1598 67.8627 33.7935L67.8638 37.1915V50.7682H67.8627Z" fill="#E71324"/>
<path d="M51.2705 25.4312H42.2285V26.5489H51.2705V25.4312Z" fill="#E71324"/>
<path d="M55.6256 35.7417C55.5149 35.6148 55.4065 35.4857 55.2931 35.3617L54.9443 34.9962L54.5788 34.6474C54.4547 34.5334 54.3256 34.4256 54.1988 34.3149C53.6824 33.8823 53.1285 33.4939 52.5451 33.1564C51.9616 32.8188 51.3485 32.531 50.7142 32.2985C50.0799 32.0677 49.4243 31.895 48.7598 31.7787C48.0953 31.6625 47.4219 31.6044 46.7495 31.6016C46.0772 31.6044 45.4032 31.6625 44.7393 31.7787C44.0748 31.895 43.4192 32.0677 42.7849 32.2985C42.1511 32.531 41.538 32.8182 40.954 33.1564C40.3705 33.4939 39.8167 33.8823 39.3003 34.3149C39.1734 34.4256 39.0443 34.534 38.9203 34.6474L38.5548 34.9962L38.206 35.3617C38.092 35.4857 37.9842 35.6148 37.8735 35.7417C37.0078 36.7745 36.3215 37.9582 35.8571 39.2263C35.396 40.4955 35.1646 41.8463 35.1602 43.1909C35.1646 44.5356 35.396 45.8864 35.8571 47.1556C36.3215 48.4237 37.0078 49.6074 37.8735 50.6402C37.9842 50.767 38.0926 50.8961 38.206 51.0202L38.5548 51.3857L38.9203 51.7345C39.0443 51.8485 39.1734 51.9563 39.3003 52.067C39.8167 52.4996 40.3705 52.888 40.954 53.2255C41.5375 53.5631 42.1506 53.8509 42.7849 54.0834C43.4192 54.3142 44.0748 54.4869 44.7393 54.6032C45.4038 54.7194 46.0772 54.7775 46.7495 54.7803C47.4219 54.7775 48.0959 54.7194 48.7598 54.6032C49.4243 54.4869 50.0799 54.3142 50.7142 54.0834C51.348 53.8509 51.961 53.5637 52.5451 53.2255C53.1285 52.888 53.6824 52.4996 54.1988 52.067C54.3256 51.9563 54.4547 51.8479 54.5788 51.7345L54.9443 51.3857L55.2931 51.0202C55.4071 50.8961 55.5149 50.767 55.6256 50.6402C56.4913 49.6074 57.1776 48.4237 57.642 47.1556C58.1031 45.8864 58.3344 44.5356 58.3389 43.1909C58.3344 41.8463 58.1031 40.4955 57.642 39.2263C57.1776 37.9582 56.4913 36.7745 55.6256 35.7417ZM56.5734 46.7672C56.1548 47.9101 55.5362 48.9775 54.7549 49.9097C54.6548 50.0243 54.5576 50.1411 54.4547 50.2529L54.1401 50.5826L53.8104 50.8973C53.6986 51.0001 53.5818 51.0973 53.4672 51.1974C53.0011 51.5875 52.5015 51.9379 51.975 52.2425C51.4486 52.5471 50.8958 52.8064 50.3247 53.016C49.7529 53.2239 49.1622 53.3792 48.5631 53.4843C47.964 53.5888 47.3565 53.6419 46.7484 53.6441C46.1409 53.6413 45.5329 53.5888 44.9338 53.4843C44.3346 53.3792 43.7439 53.2244 43.1722 53.016C42.601 52.8064 42.0483 52.5471 41.5218 52.2425C40.9954 51.9379 40.4957 51.5875 40.0296 51.1974C39.9151 51.0973 39.7983 51.0001 39.6865 50.8973L39.3567 50.5826L39.0421 50.2529C38.9393 50.1411 38.842 50.0243 38.742 49.9097C37.9607 48.9781 37.3426 47.9101 36.9234 46.7672C36.5082 45.6226 36.2997 44.4059 36.2952 43.1909C36.3003 41.976 36.5082 40.7593 36.9234 39.6147C37.342 38.4718 37.9607 37.4044 38.742 36.4722C38.842 36.3576 38.9393 36.2408 39.0421 36.129L39.3567 35.7993L39.6865 35.4846C39.7983 35.3818 39.9151 35.2845 40.0296 35.1845C40.4957 34.7944 40.9954 34.444 41.5218 34.1394C42.0483 33.8348 42.601 33.5755 43.1722 33.3659C43.7439 33.158 44.3346 33.0027 44.9338 32.8976C45.5329 32.7931 46.1404 32.74 46.7484 32.7378C47.3559 32.7405 47.964 32.7931 48.5631 32.8976C49.1622 33.0027 49.7529 33.1575 50.3247 33.3659C50.8958 33.5755 51.4486 33.8348 51.975 34.1394C52.5015 34.444 53.0011 34.7944 53.4672 35.1845C53.5818 35.2845 53.6986 35.3818 53.8104 35.4846L54.1401 35.7993L54.4547 36.129C54.5576 36.2408 54.6548 36.3576 54.7549 36.4722C55.5362 37.4038 56.1543 38.4718 56.5734 39.6147C56.9887 40.7593 57.1971 41.976 57.2016 43.1909C57.1966 44.4059 56.9887 45.6226 56.5734 46.7672Z" fill="#E71324"/>
<path d="M53.9129 37.1796C53.8229 37.0773 53.7363 36.9723 53.6441 36.8722L53.3624 36.5766L53.0668 36.2949C52.9667 36.2027 52.8617 36.1161 52.7594 36.0261C52.3419 35.6768 51.8948 35.3633 51.4237 35.0905C50.9526 34.8178 50.4585 34.5864 49.9477 34.3987C49.4363 34.2125 48.9082 34.0739 48.3722 33.9801C47.8363 33.8867 47.2925 33.8392 46.7476 33.8364C46.2027 33.8392 45.6589 33.8867 45.1229 33.9801C44.587 34.0739 44.0588 34.2125 43.5475 34.3987C43.0367 34.5864 42.5426 34.8178 42.0715 35.0905C41.6003 35.3633 41.1532 35.6762 40.7358 36.0261C40.6335 36.1161 40.5284 36.2027 40.4284 36.2949L40.1327 36.5766L39.8511 36.8722C39.7589 36.9723 39.6722 37.0773 39.5822 37.1796C38.8831 38.014 38.3298 38.9697 37.9548 39.9913C37.5837 41.0146 37.3976 42.1016 37.3926 43.1914C37.3976 44.2812 37.5832 45.3682 37.9548 46.3915C38.3298 47.4132 38.8831 48.3683 39.5822 49.2032C39.6722 49.3055 39.7589 49.4106 39.8511 49.5106L40.1327 49.8063L40.4284 50.0879C40.5284 50.1802 40.6335 50.2668 40.7358 50.3568C41.1532 50.7061 41.6003 51.0196 42.0715 51.2923C42.5426 51.565 43.0367 51.7964 43.5475 51.9842C44.0588 52.1703 44.587 52.3089 45.1229 52.4028C45.6589 52.4961 46.2027 52.5436 46.7476 52.5464C47.2925 52.5436 47.8363 52.4961 48.3722 52.4028C48.9082 52.3089 49.4363 52.1703 49.9477 51.9842C50.4585 51.7964 50.9526 51.565 51.4237 51.2923C51.8948 51.0196 52.3419 50.7066 52.7594 50.3568C52.8617 50.2668 52.9667 50.1802 53.0668 50.0879L53.3624 49.8063L53.6441 49.5106C53.7363 49.4106 53.8229 49.3055 53.9129 49.2032C54.6121 48.3688 55.1653 47.4132 55.5404 46.3915C55.9114 45.3682 56.0975 44.2812 56.1026 43.1914C56.0975 42.1016 55.912 41.0146 55.5404 39.9913C55.1653 38.9697 54.6121 38.0146 53.9129 37.1796ZM54.4723 46.0026C54.1432 46.899 53.6575 47.7379 53.0427 48.4717C52.9634 48.5611 52.8874 48.6539 52.8063 48.7422L52.5588 49.002L52.2989 49.2496C52.2106 49.3307 52.1184 49.4067 52.0284 49.486C51.6612 49.7934 51.2683 50.0684 50.8547 50.3081C50.4412 50.5473 50.0075 50.7513 49.5593 50.9156C49.1105 51.0788 48.6472 51.2001 48.1766 51.2823C47.706 51.3644 47.2282 51.4063 46.7476 51.4086C46.2675 51.4058 45.7891 51.3638 45.3185 51.2823C44.848 51.2001 44.3847 51.0788 43.9359 50.9156C43.4877 50.7508 43.054 50.5473 42.6404 50.3081C42.2268 50.0689 41.8334 49.7934 41.4668 49.486C41.3774 49.4067 41.2846 49.3307 41.1963 49.2496L40.9364 49.002L40.6888 48.7422C40.6078 48.6539 40.5318 48.5617 40.4524 48.4717C39.8377 47.7379 39.352 46.8984 39.0228 46.0026C38.6975 45.1045 38.5344 44.1516 38.5293 43.1914C38.5344 42.2313 38.697 41.2784 39.0228 40.3803C39.352 39.4839 39.8377 38.645 40.4524 37.9112C40.5318 37.8218 40.6078 37.729 40.6888 37.6407L40.9364 37.3808L41.1963 37.1332C41.2846 37.0522 41.3768 36.9762 41.4668 36.8968C41.834 36.5894 42.2268 36.3145 42.6404 36.0747C43.054 35.8355 43.4877 35.6315 43.9359 35.4672C44.3847 35.304 44.848 35.1828 45.3185 35.1006C45.7891 35.0184 46.2669 34.9765 46.7476 34.9737C47.2277 34.9765 47.706 35.0184 48.1766 35.1006C48.6472 35.1828 49.1105 35.304 49.5593 35.4672C50.0075 35.6321 50.4412 35.8355 50.8547 36.0747C51.2683 36.3139 51.6618 36.5894 52.0284 36.8968C52.1178 36.9762 52.2106 37.0522 52.2989 37.1332L52.5588 37.3808L52.8063 37.6407C52.8874 37.729 52.9634 37.8212 53.0427 37.9112C53.6575 38.645 54.1432 39.4844 54.4723 40.3803C54.7976 41.2784 54.9608 42.2313 54.9658 43.1914C54.9608 44.1516 54.7982 45.1045 54.4723 46.0026Z" fill="#E71324"/>
</g>
<defs>
<clipPath id="clip0_79_1710">
<rect width="58" height="46.2625" fill="white" transform="translate(11 17)"/>
</clipPath>
</defs>
</svg>
