<svg width="80" height="80" viewBox="0 0 80 80" fill="none" xmlns="http://www.w3.org/2000/svg">
<g clip-path="url(#clip0_79_2627)">
<path fill-rule="evenodd" clip-rule="evenodd" d="M27.9741 14.6333C22.2712 14.6333 16.8591 17.1121 13.1276 21.4355C12.9374 21.6575 12.9638 21.9905 13.1805 22.1807C13.4025 22.371 13.7354 22.3446 13.9257 22.1279C17.4563 18.037 22.5778 15.6904 27.9741 15.6904C33.3704 15.6904 38.513 18.0476 42.0436 22.1543C42.1493 22.2759 42.2972 22.3393 42.4452 22.3393C42.5668 22.3393 42.6884 22.297 42.7888 22.2124C43.0108 22.0222 43.0372 21.6892 42.8469 21.4672C39.1155 17.1227 33.6928 14.6333 27.9741 14.6333Z" fill="#E71324"/>
<path fill-rule="evenodd" clip-rule="evenodd" d="M38.0993 25.2037C38.205 25.3253 38.353 25.3887 38.501 25.3887C38.6225 25.3887 38.7441 25.3464 38.8445 25.2619C39.0665 25.0716 39.0929 24.7386 38.9026 24.5166C36.1596 21.3243 32.1797 19.4956 27.9779 19.4956C23.7761 19.4956 19.8121 21.319 17.069 24.4955C16.8788 24.7175 16.9052 25.0505 17.1219 25.2407C17.3439 25.431 17.6768 25.4046 17.8671 25.1879C20.4041 22.244 24.0879 20.558 27.9726 20.558C31.8573 20.558 35.5623 22.2493 38.0993 25.2037Z" fill="#E71324"/>
<path fill-rule="evenodd" clip-rule="evenodd" d="M34.2585 28.042C34.3642 28.1477 34.5016 28.2058 34.639 28.2058C34.7712 28.2058 34.9033 28.1583 35.0037 28.0578C35.2151 27.857 35.2204 27.524 35.0196 27.3126C33.1644 25.3782 30.6645 24.3105 27.9795 24.3105C25.2946 24.3105 22.8105 25.3729 20.9554 27.2967C20.7545 27.5082 20.7598 27.8411 20.9712 28.042C21.1826 28.2428 21.5156 28.2375 21.7164 28.0261C23.3707 26.3084 25.5959 25.3623 27.9795 25.3623C30.3632 25.3623 32.6042 26.3137 34.2585 28.042Z" fill="#E71324"/>
<path fill-rule="evenodd" clip-rule="evenodd" d="M24.8184 31.6785C24.8184 33.4279 26.2401 34.8497 27.9895 34.8497C29.739 34.8497 31.1607 33.4279 31.1607 31.6785C31.1607 29.9291 29.739 28.5073 27.9895 28.5073C26.2401 28.5073 24.8184 29.9291 24.8184 31.6785ZM30.0984 31.6785C30.0984 32.8413 29.1523 33.7926 27.9843 33.7926C26.8162 33.7926 25.8701 32.8466 25.8701 31.6785C25.8701 30.5105 26.8162 29.5644 27.9843 29.5644C29.1523 29.5644 30.0984 30.5105 30.0984 31.6785Z" fill="#E71324"/>
<path fill-rule="evenodd" clip-rule="evenodd" d="M64.4099 49.0034C64.4099 52.238 62.671 55.2559 59.8751 56.8838C59.7007 56.9842 59.4945 56.9842 59.3201 56.8838C59.1457 56.7886 59.0453 56.6142 59.0453 56.4134C59.0453 56.2125 59.1457 56.0381 59.3148 55.9377C61.7831 54.5107 63.3158 51.8522 63.3158 48.9981C63.3158 46.8523 62.4754 44.8386 60.9533 43.3164C59.4364 41.8101 57.428 40.9803 55.298 40.9803H55.2557C50.89 41.0014 47.3119 44.5743 47.2802 48.94C47.259 51.6778 48.6121 54.2094 50.8953 55.7052C51.0539 55.8056 51.149 55.9747 51.149 56.1544V56.1914C51.149 56.387 51.0433 56.5614 50.8689 56.6565C50.6998 56.7516 50.4936 56.7464 50.3245 56.6354C47.7347 54.9546 46.1914 52.1006 46.1914 48.9981C46.1914 43.9771 50.277 39.8862 55.3033 39.8862C60.3296 39.8862 64.4099 43.9823 64.4099 49.0034Z" fill="#E71324"/>
<path d="M66.4979 48.9615C66.4979 51.5407 65.5994 54.0618 63.961 56.0596C62.7559 57.5342 61.1704 58.6864 59.3892 59.3841C59.3364 59.4052 59.2729 59.4211 59.2095 59.4211C59.1091 59.4211 59.0192 59.3894 58.9347 59.3312C58.7972 59.2361 58.7233 59.0934 58.7233 58.9296V58.9137C58.7233 58.7076 58.8448 58.5332 59.0351 58.4592C60.6524 57.8249 62.09 56.7731 63.1946 55.4254C64.6851 53.6072 65.5096 51.3081 65.5096 48.9615C65.5096 43.3326 60.9325 38.7555 55.3037 38.7555C49.6748 38.7555 45.0977 43.3326 45.0977 48.9615C45.0977 51.2817 45.8535 53.4698 47.2911 55.288C48.3218 56.5882 49.6748 57.6347 51.2075 58.3165C51.3872 58.3957 51.5088 58.5702 51.5088 58.7657V58.7816C51.5088 58.9454 51.4242 59.0987 51.2868 59.1885C51.1494 59.2784 50.9697 59.289 50.8217 59.2308C49.141 58.4909 47.6558 57.344 46.5195 55.9116C44.9445 53.9244 44.1094 51.5248 44.1094 48.972C44.1094 42.7988 49.1304 37.7725 55.3089 37.7725H55.3195C56.8258 37.7725 58.2846 38.0684 59.6588 38.6498C60.9907 39.2153 62.1904 40.024 63.2158 41.0494C64.2464 42.08 65.0551 43.2745 65.6206 44.6064C66.202 45.9858 66.4979 47.4499 66.4979 48.9615Z" fill="#E71324"/>
<path fill-rule="evenodd" clip-rule="evenodd" d="M55.1134 45.1294C53.0099 45.1294 51.3027 46.8365 51.3027 48.9401C51.3027 50.8692 52.7403 52.4654 54.6008 52.7138V67.3013C54.6008 67.592 54.8386 67.8298 55.1293 67.8298C55.42 67.8298 55.6578 67.592 55.6578 67.3013V52.7138C57.5024 52.4443 58.9242 50.8587 58.9242 48.9401C58.9242 46.8418 57.217 45.1294 55.1134 45.1294ZM55.1134 51.6937C53.5966 51.6937 52.3598 50.457 52.3598 48.9401C52.3598 47.4232 53.5966 46.1865 55.1134 46.1865C56.6303 46.1865 57.8671 47.4232 57.8671 48.9401C57.8671 50.457 56.6303 51.6937 55.1134 51.6937Z" fill="#E71324"/>
<path fill-rule="evenodd" clip-rule="evenodd" d="M64.4211 35.8905C64.4105 36.1336 64.5426 36.3451 64.7593 36.4296H64.7646C64.8386 36.4613 64.9073 36.4825 64.9866 36.493H64.9919C65.3037 36.493 65.5574 36.2552 65.5785 35.9434C65.9961 26.9636 60.6738 18.4966 52.3388 14.8761C49.3632 13.5812 46.2237 12.947 42.9997 13.0051C42.6931 13.0104 42.4395 13.2747 42.4395 13.5865C42.45 13.8983 42.7143 14.1415 43.0314 14.1309C43.1583 14.1309 43.2904 14.1256 43.4172 14.1256C46.3136 14.1256 49.1571 14.7229 51.8684 15.8962C59.7806 19.3422 64.8227 27.3759 64.4211 35.8905Z" fill="#E71324"/>
<path fill-rule="evenodd" clip-rule="evenodd" d="M42.1856 58.9134L42.1803 58.9028C42.0958 58.6914 41.8844 58.554 41.6412 58.554C41.5355 58.554 41.4193 58.554 41.3136 58.554C37.1593 58.554 33.1213 57.3066 29.6277 54.9441C26.1341 52.5763 23.4598 49.2835 21.9006 45.4094C20.7484 42.5606 20.2305 39.5691 20.3679 36.5142C20.3784 36.3557 20.3256 36.2024 20.2199 36.0914C20.1195 35.9804 19.982 35.9223 19.8341 35.917H19.8235C19.8129 35.917 19.8023 35.917 19.7971 35.917C19.6544 35.917 19.5222 35.9698 19.4165 36.065C19.3055 36.1654 19.2421 36.3028 19.2368 36.4561C19.0888 39.6801 19.6279 42.8407 20.8383 45.8428C22.4873 49.9283 25.3044 53.4061 28.9882 55.9007C32.6668 58.3954 36.9267 59.7115 41.303 59.7115C41.4193 59.7115 41.5408 59.7115 41.6571 59.7115C41.9689 59.7009 42.2173 59.4472 42.2279 59.1248C42.2173 59.0455 42.2068 58.9662 42.1856 58.9134Z" fill="#E71324"/>
</g>
<defs>
<clipPath id="clip0_79_2627">
<rect width="54" height="54.8298" fill="white" transform="translate(13 13)"/>
</clipPath>
</defs>
</svg>
