<svg width="80" height="80" viewBox="0 0 80 80" fill="none" xmlns="http://www.w3.org/2000/svg">
<g clip-path="url(#clip0_79_2946)">
<path d="M69.9873 39.3498C69.9844 39.2661 69.9844 39.1825 69.9787 39.0989L69.9602 38.8486L69.9412 38.5983C69.9342 38.5147 69.9296 38.431 69.9175 38.348L69.8541 37.8491C69.8449 37.766 69.8304 37.683 69.8154 37.6005L69.7716 37.3531L69.7272 37.1057C69.7122 37.0232 69.6909 36.9419 69.673 36.86C69.6349 36.6968 69.5986 36.533 69.5582 36.3698L69.421 35.8853C69.0374 34.5992 68.4642 33.3702 67.7271 32.2502C66.9912 31.1296 66.0915 30.1185 65.0672 29.2552C64.9426 29.1433 64.8071 29.0441 64.6762 28.9391L64.4783 28.784C64.4126 28.7315 64.3428 28.6854 64.2753 28.6363C64.1386 28.5395 64.0031 28.4408 63.8647 28.3468L63.4414 28.0752L63.3353 28.0077L63.2263 27.9448L63.0082 27.8191L62.7902 27.694C62.7176 27.6524 62.6414 27.6161 62.5676 27.5769C62.4182 27.5008 62.27 27.4223 62.1189 27.3496L61.6604 27.142C60.4291 26.6091 59.1193 26.2533 57.7876 26.0987C57.7046 26.0889 57.6215 26.0768 57.5379 26.0687L57.2876 26.0491C57.1204 26.0376 56.9537 26.0209 56.7864 26.0151L56.2847 26.0024L56.1595 25.9995H23.8399L23.7147 26.0024L23.213 26.0151C23.0457 26.0209 22.8791 26.0376 22.7118 26.0491L22.4615 26.0687C22.3779 26.0768 22.2954 26.0889 22.2118 26.0987C20.8801 26.2533 19.5703 26.6091 18.339 27.142L17.8805 27.3496C17.7294 27.4223 17.5812 27.5008 17.4318 27.5769C17.3574 27.6161 17.2819 27.6519 17.2092 27.694L16.9912 27.8191L16.7732 27.9448L16.6642 28.0077L16.558 28.0752L16.1347 28.3468C15.9963 28.4408 15.8608 28.5395 15.7241 28.6363C15.6566 28.6859 15.5863 28.7321 15.5211 28.784L15.3233 28.9391C15.1929 29.0441 15.0574 29.1427 14.9322 29.2552C13.908 30.1191 13.0082 31.1296 12.2723 32.2502C11.5353 33.3696 10.962 34.5992 10.5785 35.8853L10.4412 36.3698C10.4008 36.5324 10.3645 36.6962 10.3264 36.86C10.3086 36.9419 10.2872 37.0232 10.2722 37.1057L10.2278 37.3531L10.184 37.6005C10.169 37.683 10.1546 37.7655 10.1453 37.8491L10.0819 38.348C10.0698 38.431 10.0646 38.5147 10.0583 38.5983L10.0392 38.8486L10.0208 39.0989C10.015 39.1825 10.015 39.2661 10.0121 39.3498L10 39.8515L10.0121 40.3533C10.015 40.4369 10.015 40.5205 10.0208 40.6042L10.0392 40.8545L10.0583 41.1048C10.0652 41.1884 10.0698 41.272 10.0819 41.3551L10.1453 41.8539C10.1546 41.937 10.169 42.02 10.184 42.1025L10.2278 42.3499L10.2722 42.5974C10.2872 42.6798 10.3086 42.7611 10.3264 42.843C10.3645 43.0063 10.4008 43.1701 10.4412 43.3333L10.5785 43.8177C10.962 45.1038 11.5353 46.3329 12.2723 47.4529C13.0082 48.5735 13.908 49.5845 14.9322 50.4479C15.0568 50.5598 15.1923 50.659 15.3233 50.7639L15.5211 50.9191C15.5868 50.9715 15.6566 51.0177 15.7241 51.0667C15.8608 51.1636 15.9963 51.2622 16.1347 51.3562L16.558 51.6279L16.6642 51.6953L16.7732 51.7582L16.9912 51.8839L17.2092 52.0091C17.2819 52.0506 17.358 52.0869 17.4318 52.1262C17.5812 52.2023 17.7294 52.2807 17.8805 52.3534L18.339 52.561C19.5703 53.0939 20.8801 53.4498 22.2118 53.6043C22.2948 53.6141 22.3779 53.6262 22.4615 53.6343L22.7118 53.6539C22.8791 53.6655 23.0457 53.6822 23.213 53.688L23.7147 53.7006L23.8399 53.7035H56.1589L56.2841 53.7006L56.7859 53.688C56.9531 53.6822 57.1198 53.6655 57.287 53.6539L57.5373 53.6343C57.621 53.6262 57.7034 53.6141 57.7871 53.6043C59.1188 53.4498 60.4285 53.0939 61.6598 52.561L62.1183 52.3534C62.2695 52.2807 62.4177 52.2023 62.567 52.1262C62.6414 52.0869 62.717 52.0512 62.7897 52.0091L63.0077 51.8839L63.2257 51.7582L63.3347 51.6953L63.4408 51.6279L63.8641 51.3562C64.0025 51.2622 64.1381 51.1636 64.2748 51.0667C64.3422 51.0171 64.4126 50.971 64.4778 50.9191L64.6756 50.7639C64.8059 50.659 64.9415 50.5603 65.0666 50.4479C66.0909 49.5839 66.9906 48.5735 67.7265 47.4529C68.4636 46.3334 69.0369 45.1038 69.4204 43.8177L69.5576 43.3333C69.598 43.1706 69.6344 43.0068 69.6724 42.843C69.6903 42.7611 69.7116 42.6798 69.7266 42.5974L69.771 42.3499L69.8149 42.1025C69.8299 42.02 69.8443 41.9376 69.8535 41.8539L69.917 41.3551C69.9291 41.272 69.9342 41.1884 69.9406 41.1048L69.9596 40.8545L69.9781 40.6042C69.9839 40.5205 69.9839 40.4369 69.9867 40.3533L69.9988 39.8515L69.9867 39.3498H69.9873ZM68.8148 40.3112C68.8119 40.3879 68.8125 40.4646 68.8067 40.5407L68.7894 40.7703L68.7721 40.9998C68.7664 41.0765 68.7618 41.1526 68.7502 41.2288L68.692 41.6855C68.6839 41.7617 68.6701 41.8372 68.6562 41.9128L68.6158 42.1394L68.5755 42.3661C68.5622 42.4416 68.542 42.516 68.5259 42.591C68.4913 42.7404 68.4578 42.8903 68.4215 43.0391L68.2957 43.4821C67.9445 44.6586 67.4203 45.7827 66.7455 46.8081C66.0719 47.8341 65.2477 48.7598 64.3099 49.5505C64.1963 49.6531 64.0717 49.7437 63.9524 49.8394L63.7713 49.9813C63.7113 50.0292 63.6473 50.0713 63.585 50.1162C63.4598 50.2045 63.3358 50.295 63.209 50.3815L62.8214 50.6301L62.7245 50.6924L62.6247 50.7501L62.4252 50.8648L62.2256 50.9796C62.1593 51.0177 62.0895 51.0506 62.0215 51.0863C61.8848 51.1555 61.7492 51.2276 61.6108 51.2945L61.1915 51.4843C60.0652 51.9716 58.8679 52.2975 57.6487 52.4388C57.5725 52.448 57.4964 52.4589 57.4203 52.4664L57.1907 52.4843C57.0379 52.4947 56.8851 52.5108 56.7316 52.5155L56.272 52.527L56.1572 52.5299H23.8411L23.7263 52.527L23.2666 52.5155C23.1132 52.5103 22.961 52.4941 22.8075 52.4843L22.578 52.467C22.5019 52.4595 22.4257 52.4486 22.3496 52.4393C21.1304 52.298 19.9331 51.9722 18.8067 51.4848L18.3875 51.2951C18.2496 51.2282 18.1141 51.1561 17.9768 51.0869C17.9088 51.0511 17.8396 51.0183 17.7727 50.9802L17.5731 50.8654L17.3736 50.7507L17.2738 50.693L17.1769 50.6307L16.7893 50.3821C16.6624 50.2956 16.5384 50.2051 16.4133 50.1168C16.3516 50.0718 16.287 50.0297 16.227 49.9819L16.0459 49.84C15.9265 49.7437 15.8019 49.6537 15.6883 49.551C14.7506 48.7598 13.9264 47.8341 13.2528 46.8087C12.578 45.7838 12.0538 44.6592 11.7025 43.4826L11.5768 43.0397C11.5405 42.8909 11.507 42.741 11.4724 42.5916C11.4563 42.5166 11.4361 42.4422 11.4228 42.3667L11.3824 42.14L11.3421 41.9133C11.3282 41.8378 11.315 41.7622 11.3063 41.6861L11.2481 41.2293C11.2371 41.1532 11.2325 41.0765 11.2261 41.0004L11.2088 40.7708L11.1915 40.5413C11.1858 40.4646 11.1863 40.3879 11.1835 40.3118L11.1719 39.8521L11.1835 39.3924C11.1863 39.3157 11.1858 39.239 11.1915 39.1629L11.2088 38.9334L11.2261 38.7038C11.2319 38.6271 11.2365 38.551 11.2481 38.4749L11.3063 38.0181C11.3144 37.942 11.3282 37.8664 11.3421 37.7908L11.3824 37.5642L11.4228 37.3375C11.4361 37.262 11.4563 37.1876 11.4724 37.1126C11.507 36.9632 11.5405 36.8133 11.5768 36.6645L11.7025 36.2216C12.0538 35.045 12.578 33.921 13.2528 32.8955C13.9264 31.8695 14.7506 30.9439 15.6883 30.1532C15.8019 30.0505 15.9265 29.9599 16.0459 29.8642L16.227 29.7223C16.287 29.6745 16.351 29.6324 16.4133 29.5874C16.5384 29.4991 16.6624 29.4086 16.7893 29.3221L17.1769 29.0735L17.2738 29.0112L17.3736 28.9535L17.5731 28.8388L17.7727 28.724C17.839 28.6859 17.9088 28.6531 17.9768 28.6173C18.1135 28.5481 18.249 28.476 18.3875 28.4091L18.8067 28.2194C19.9331 27.732 21.1304 27.4062 22.3496 27.2649C22.4257 27.2556 22.5019 27.2447 22.578 27.2372L22.8075 27.2199C22.9604 27.2095 23.1132 27.1934 23.2666 27.1887L23.7263 27.1772L23.8411 27.1743H56.1578L56.2726 27.1772L56.7322 27.1887C56.8856 27.1939 57.0379 27.2101 57.1913 27.2199L57.4208 27.2372C57.497 27.2447 57.5731 27.2556 57.6492 27.2649C58.8684 27.4062 60.0658 27.732 61.1921 28.2194L61.6114 28.4091C61.7492 28.476 61.8848 28.5481 62.022 28.6173C62.0901 28.6531 62.1593 28.6859 62.2262 28.724L62.4257 28.8388L62.6253 28.9535L62.7251 29.0112L62.822 29.0735L63.2095 29.3221C63.3364 29.4086 63.4604 29.4991 63.5856 29.5874C63.6473 29.6324 63.7119 29.6745 63.7718 29.7229L63.9529 29.8648C64.0723 29.9611 64.1969 30.0511 64.3105 30.1537C65.2483 30.945 66.0724 31.8707 66.7461 32.8961C67.4208 33.921 67.9451 35.0456 68.2963 36.2221L68.4221 36.6651C68.4584 36.8139 68.4918 36.9638 68.5264 37.1132C68.5426 37.1882 68.5628 37.2626 68.576 37.3381L68.6164 37.5648L68.6568 37.7914C68.6706 37.867 68.6839 37.9425 68.6925 38.0187L68.7508 38.4754C68.7618 38.5516 68.7664 38.6283 68.7727 38.7044L68.79 38.9339L68.8073 39.1635C68.8131 39.2402 68.8125 39.3169 68.8154 39.393L68.8269 39.8527L68.8154 40.3123L68.8148 40.3112Z" fill="#E71324"/>
<path d="M67.676 39.223L67.6599 39.0142L67.6443 38.8054C67.6391 38.7356 67.6351 38.6659 67.6247 38.5967L67.5717 38.1808C67.5642 38.111 67.552 38.0424 67.5394 37.9738L67.5024 37.7673L67.4655 37.5608C67.4534 37.4922 67.435 37.4247 67.42 37.3561L67.3248 36.9483L67.21 36.5452C66.8905 35.4748 66.4136 34.4517 65.7993 33.5179C65.1857 32.5836 64.4348 31.7404 63.5807 31.0195C63.4774 30.9255 63.3632 30.8442 63.2548 30.7559L63.0898 30.6262C63.0356 30.5823 62.9768 30.5443 62.9203 30.5033C62.8061 30.4232 62.6936 30.3401 62.5777 30.2617L62.2247 30.0356L62.1365 29.9791L62.046 29.9266L61.8643 29.8222L61.6826 29.7178C61.6221 29.6826 61.5586 29.6532 61.4969 29.6209C61.3723 29.5581 61.2489 29.4923 61.1232 29.4312L60.7414 29.2587C59.716 28.8152 58.6271 28.5188 57.5169 28.3902C57.4477 28.3821 57.3784 28.3711 57.3087 28.3648L57.0999 28.3492C56.9603 28.34 56.8213 28.325 56.6818 28.3204L56.2625 28.31L56.1575 28.3071H23.8431L23.7381 28.31L23.3188 28.3204C23.1792 28.3244 23.0402 28.34 22.9007 28.3492L22.6919 28.3648C22.6221 28.3717 22.5535 28.3821 22.4837 28.3902C21.3735 28.5188 20.2846 28.8152 19.2592 29.2587L18.8774 29.4312C18.7516 29.4917 18.6282 29.5581 18.5037 29.6209C18.4419 29.6532 18.3785 29.6826 18.3179 29.7178L18.1363 29.8222L17.9546 29.9266L17.8641 29.9791L17.7758 30.0356L17.4229 30.2617C17.3075 30.3401 17.195 30.4232 17.0803 30.5033C17.0238 30.5449 16.9649 30.5823 16.9107 30.6262L16.7458 30.7559C16.6368 30.8436 16.5231 30.9249 16.4199 31.0195C15.5658 31.7404 14.8143 32.5836 14.2012 33.5179C13.5864 34.4517 13.11 35.4748 12.7905 36.5452L12.6758 36.9483L12.5806 37.3561C12.5656 37.4241 12.5471 37.4916 12.535 37.5608L12.4981 37.7673L12.4612 37.9738C12.4485 38.0424 12.4358 38.111 12.4289 38.1808L12.3758 38.5967C12.3655 38.6659 12.3614 38.7356 12.3562 38.8054L12.3407 39.0142L12.3245 39.223C12.3193 39.2928 12.3199 39.3626 12.3176 39.4323L12.3066 39.8516L12.3176 40.2709C12.3199 40.3407 12.3193 40.4111 12.3245 40.4803L12.3407 40.689L12.3562 40.8978C12.3614 40.9676 12.3655 41.0374 12.3758 41.1066L12.4289 41.5224C12.4364 41.5922 12.4485 41.6608 12.4612 41.7295L12.4981 41.9359L12.535 42.1424C12.5471 42.211 12.5656 42.2785 12.5806 42.3472L12.6758 42.7549L12.7905 43.158C13.11 44.2285 13.587 45.2516 14.2012 46.1853C14.8149 47.1196 15.5658 47.9628 16.4199 48.6837C16.5231 48.7777 16.6373 48.8591 16.7458 48.9473L16.9107 49.0771C16.9649 49.1209 17.0238 49.159 17.0803 49.1999C17.1945 49.2801 17.3069 49.3631 17.4229 49.4416L17.7758 49.6676L17.8641 49.7242L17.9546 49.7766L18.1363 49.881L18.3179 49.9854C18.3785 50.0206 18.4419 50.05 18.5037 50.0823C18.6282 50.1452 18.7516 50.2109 18.8774 50.2721L19.2592 50.4445C20.2846 50.888 21.3735 51.1845 22.4837 51.3131C22.5529 51.3211 22.6221 51.3321 22.6919 51.3384L22.9007 51.354C23.0402 51.3632 23.1792 51.3782 23.3188 51.3829L23.7381 51.3932L23.8431 51.3961H56.1587L56.2636 51.3932L56.6829 51.3829C56.8225 51.3788 56.9615 51.3632 57.101 51.354L57.3098 51.3384C57.3796 51.3315 57.4482 51.3211 57.518 51.3131C58.6282 51.1845 59.7171 50.888 60.7425 50.4445L61.1243 50.2721C61.2501 50.2115 61.3735 50.1452 61.4981 50.0823C61.5598 50.05 61.6232 50.0206 61.6838 49.9854L61.8654 49.881L62.0471 49.7766L62.1377 49.7242L62.2259 49.6676L62.5789 49.4416C62.6942 49.3631 62.8067 49.2801 62.9214 49.1999C62.978 49.1584 63.0368 49.1209 63.091 49.0771L63.2559 48.9473C63.365 48.8596 63.4786 48.7783 63.5818 48.6837C64.4359 47.9628 65.1874 47.1196 65.8005 46.1853C66.4153 45.2516 66.8917 44.2285 67.2112 43.158L67.326 42.7549L67.4211 42.3472C67.4361 42.2791 67.4546 42.2116 67.4667 42.1424L67.5036 41.9359L67.5405 41.7295C67.5532 41.6608 67.5659 41.5922 67.5728 41.5224L67.6259 41.1066C67.6362 41.0374 67.6403 40.9676 67.6455 40.8978L67.661 40.689L67.6772 40.4803C67.6824 40.4105 67.6818 40.3407 67.6841 40.2709L67.6951 39.8516L67.6841 39.4323C67.6818 39.3626 67.6824 39.2922 67.6772 39.223H67.676ZM66.5105 40.2294C66.5082 40.2922 66.5093 40.3551 66.5047 40.418L66.4897 40.606L66.4753 40.794C66.4707 40.8569 66.4672 40.9197 66.458 40.9814L66.4107 41.3552C66.4043 41.4175 66.3934 41.4792 66.3813 41.5409L66.3478 41.726L66.3149 41.9111C66.3046 41.9729 66.2873 42.0334 66.274 42.0945L66.1892 42.4608L66.086 42.8224C65.7993 43.7826 65.3714 44.7014 64.8189 45.5405C64.2675 46.3797 63.5922 47.1387 62.8246 47.7863C62.7317 47.8711 62.629 47.9438 62.5316 48.0228L62.3839 48.1393C62.3349 48.1791 62.2818 48.2125 62.2311 48.2495C62.1284 48.3215 62.0275 48.3959 61.9237 48.4669L61.6065 48.6699L61.5275 48.7212L61.4456 48.7679L61.2824 48.8614L61.1191 48.9554C61.0649 48.9871 61.0078 49.0131 60.9525 49.0425C60.8406 49.099 60.7299 49.1584 60.6168 49.2132L60.2742 49.3677C59.3538 49.7657 58.3768 50.0316 57.3796 50.1475C57.3173 50.155 57.255 50.1648 57.1927 50.1706L57.0047 50.1844C56.8796 50.1925 56.7544 50.2069 56.6287 50.2104L56.2515 50.2196L56.1569 50.2225H23.8442L23.7496 50.2196L23.3724 50.2104C23.2467 50.2069 23.1216 50.1925 22.9964 50.1844L22.8084 50.1706C22.7461 50.1648 22.6838 50.155 22.6215 50.1475C21.6238 50.0321 20.6474 49.7657 19.7269 49.3677L19.3843 49.2132C19.2713 49.1584 19.1611 49.099 19.0487 49.0425C18.9933 49.0131 18.9362 48.9871 18.882 48.9554L18.7188 48.8614L18.5556 48.7679L18.4737 48.7212L18.3947 48.6699L18.0774 48.4669C17.9736 48.3959 17.8727 48.3215 17.77 48.2495C17.7193 48.2125 17.6662 48.1785 17.6178 48.1393L17.4701 48.0228C17.3727 47.9438 17.2694 47.8711 17.1772 47.7863C16.409 47.1387 15.7336 46.3797 15.1828 45.5405C14.6303 44.702 14.2029 43.7832 13.9157 42.8224L13.8125 42.4608L13.7277 42.0945C13.7144 42.0334 13.6971 41.9729 13.6868 41.9111L13.6539 41.726L13.6204 41.5409C13.6089 41.4792 13.5974 41.4175 13.591 41.3552L13.5437 40.9814C13.5339 40.9192 13.531 40.8563 13.5264 40.794L13.512 40.606L13.497 40.418C13.4918 40.3551 13.4936 40.2922 13.4913 40.2294L13.4814 39.8522L13.4913 39.475C13.4936 39.4122 13.4924 39.3493 13.497 39.2864L13.512 39.0984L13.5264 38.9104C13.531 38.8475 13.5345 38.7847 13.5437 38.723L13.591 38.3492C13.5974 38.2869 13.6083 38.2252 13.6204 38.1635L13.6539 37.9784L13.6868 37.7933C13.6971 37.7315 13.7144 37.671 13.7277 37.6099L13.8125 37.2436L13.9157 36.882C14.2024 35.9218 14.6303 35.003 15.1828 34.1639C15.7342 33.3247 16.4095 32.5657 17.1772 31.9181C17.27 31.8333 17.3727 31.7606 17.4701 31.6816L17.6178 31.5651C17.6668 31.5253 17.7199 31.4919 17.77 31.4549C17.8727 31.3829 17.9736 31.3085 18.0774 31.2375L18.3947 31.0345L18.4737 30.9832L18.5556 30.9365L18.7188 30.843L18.882 30.749C18.9362 30.7173 18.9933 30.6913 19.0487 30.6619C19.1606 30.6054 19.2713 30.546 19.3843 30.4912L19.7269 30.3367C20.6474 29.9387 21.6244 29.6728 22.6215 29.5569C22.6838 29.5494 22.7461 29.5396 22.8084 29.5338L22.9964 29.52C23.1216 29.5119 23.2467 29.4975 23.3724 29.494L23.7496 29.4848L23.8442 29.4819H56.1575L56.2521 29.4848L56.6293 29.494C56.755 29.4975 56.8801 29.5119 57.0053 29.52L57.1933 29.5338C57.2556 29.5396 57.3179 29.5494 57.3802 29.5569C58.3779 29.6723 59.3543 29.9387 60.2748 30.3367L60.6174 30.4912C60.7304 30.546 60.8406 30.6054 60.953 30.6619C61.0084 30.6913 61.0655 30.7173 61.1197 30.749L61.2829 30.843L61.4462 30.9365L61.528 30.9832L61.6071 31.0345L61.9243 31.2375C62.0281 31.3085 62.129 31.3829 62.2317 31.4549C62.2824 31.4919 62.3355 31.5259 62.3839 31.5651L62.5316 31.6816C62.629 31.7606 62.7323 31.8333 62.8246 31.9181C63.5928 32.5657 64.2681 33.3247 64.8189 34.1639C65.3714 35.0024 65.7988 35.9212 66.086 36.882L66.1892 37.2436L66.274 37.6099C66.2873 37.671 66.3046 37.7315 66.3149 37.7933L66.3478 37.9784L66.3813 38.1635C66.3928 38.2252 66.4043 38.2869 66.4107 38.3492L66.458 38.723C66.4678 38.7852 66.4707 38.8481 66.4753 38.9104L66.4897 39.0984L66.5047 39.2864C66.5099 39.3493 66.5082 39.4122 66.5105 39.475L66.5203 39.8522L66.5105 40.2294Z" fill="#E71324"/>
<path d="M62.7356 37.7112C62.6254 37.3645 62.483 37.0289 62.318 36.7053C62.1531 36.3818 61.9645 36.0704 61.7494 35.7785C60.9004 34.602 59.6702 33.7098 58.2855 33.2605C56.899 32.8083 55.3897 32.8083 54.0027 33.2605C52.6179 33.7098 51.3878 34.6014 50.5382 35.778C50.3231 36.0698 50.1345 36.3812 49.9696 36.7048C49.8052 37.0283 49.6622 37.364 49.552 37.7106C49.4407 38.0566 49.3542 38.4107 49.2977 38.7695C49.2429 39.1282 49.2146 39.4904 49.2129 39.8514C49.2152 40.2125 49.2429 40.5747 49.2977 40.934C49.3542 41.2927 49.4407 41.6468 49.5514 41.9934C49.6616 42.34 49.8046 42.6757 49.969 42.9992C50.1339 43.3228 50.3225 43.6342 50.5377 43.9261C51.3872 45.1026 52.6174 45.9942 54.0015 46.4435C55.388 46.8951 56.8973 46.8957 58.2844 46.4435C59.6691 45.9948 60.8998 45.1026 61.7488 43.9266C61.9639 43.6348 62.1525 43.3234 62.3175 42.9998C62.4818 42.6763 62.6249 42.3406 62.735 41.994C62.8457 41.648 62.9328 41.2938 62.9894 40.9345C63.0441 40.5758 63.0718 40.2136 63.0741 39.8526C63.0718 39.4915 63.0441 39.1294 62.9894 38.7706C62.9328 38.4119 62.8463 38.0578 62.7356 37.7117V37.7112ZM61.8307 40.7523C61.784 41.0505 61.7113 41.344 61.6196 41.6312C61.5285 41.919 61.4097 42.1976 61.273 42.4663C61.1357 42.7351 60.9794 42.9941 60.8006 43.2363C60.0947 44.2144 59.0704 44.9555 57.9222 45.3281C56.7733 45.703 55.5126 45.703 54.3637 45.3281C53.2154 44.9555 52.1911 44.2144 51.4858 43.2357C51.307 42.9929 51.1501 42.7339 51.0135 42.4658C50.8768 42.197 50.758 41.9184 50.6668 41.6307C50.5751 41.3434 50.503 41.0493 50.4558 40.7517C50.4108 40.4535 50.3877 40.1525 50.3854 39.8514C50.3877 39.5504 50.4108 39.2493 50.4563 38.9511C50.503 38.653 50.5757 38.3594 50.6674 38.0722C50.7585 37.7844 50.8773 37.5059 51.014 37.2377C51.1513 36.9689 51.3076 36.71 51.4864 36.4677C52.1923 35.4896 53.216 34.7485 54.3643 34.3759C55.5131 34.0005 56.7739 34.001 57.9227 34.3759C59.071 34.7485 60.0947 35.4902 60.8006 36.4683C60.9794 36.7111 61.1357 36.9701 61.273 37.2382C61.4097 37.507 61.5285 37.7856 61.6196 38.0734C61.7113 38.3606 61.784 38.6541 61.8307 38.9523C61.8757 39.2505 61.8987 39.5515 61.9011 39.8526C61.8987 40.1536 61.8757 40.4547 61.8307 40.7529V40.7523Z" fill="#E71324"/>
<path d="M57.5724 35.454C56.6536 35.153 55.6328 35.1524 54.7147 35.454C53.7948 35.7528 52.97 36.348 52.4031 37.1346C51.8316 37.9178 51.5172 38.8804 51.5196 39.8516C51.5167 40.8229 51.831 41.7854 52.4025 42.5686C52.9695 43.3559 53.7942 43.9505 54.7135 44.2492C55.6322 44.5503 56.6531 44.5509 57.5718 44.2492C58.4917 43.9505 59.3164 43.3559 59.8834 42.5692C60.4549 41.786 60.7692 40.824 60.7669 39.8522C60.7692 38.881 60.4555 37.9184 59.8839 37.1352C59.3176 36.348 58.4923 35.7528 57.573 35.454H57.5724ZM58.9346 41.8783C58.5113 42.4671 57.8925 42.9112 57.2096 43.1333C56.5291 43.3576 55.7562 43.3576 55.0757 43.1333C54.3923 42.9112 53.7734 42.4671 53.3507 41.8777C52.9239 41.2912 52.6909 40.5806 52.6921 39.8511C52.6909 39.1215 52.9245 38.411 53.3513 37.8244C53.7746 37.2356 54.3934 36.7915 55.0763 36.5694C55.7568 36.3445 56.5291 36.3451 57.2096 36.5694C57.8925 36.7915 58.5113 37.2356 58.9346 37.825C59.3614 38.4115 59.5944 39.1221 59.5933 39.8522C59.5944 40.5818 59.3614 41.2923 58.9346 41.8789V41.8783Z" fill="#E71324"/>
<path d="M24.9903 31.7773C20.5316 31.7773 16.916 35.3929 16.916 39.8528C16.916 44.3127 20.5316 47.9259 24.9903 47.9259C29.449 47.9259 33.0646 44.3115 33.0646 39.8528C33.0646 35.394 29.4502 31.7773 24.9903 31.7773ZM29.8845 44.7458C28.5776 46.0527 26.8393 46.7724 24.9903 46.7724C23.1413 46.7724 21.4036 46.0527 20.0967 44.7458C18.7892 43.4389 18.0695 41.7012 18.0695 39.8528C18.0695 38.0043 18.7892 36.2655 20.0967 34.958C21.4042 33.6506 23.1419 32.9308 24.9903 32.9308C26.8387 32.9308 28.577 33.6506 29.8839 34.958C31.1908 36.2655 31.9105 38.0038 31.9105 39.8528C31.9105 41.7018 31.1908 43.4389 29.8839 44.7458H29.8845Z" fill="#E71324"/>
<path d="M25.567 35.7295H24.4135V39.2747H20.9531V40.4281H24.4135V43.9733H25.567V40.4281H29.0274V39.2747H25.567V35.7295Z" fill="#E71324"/>
</g>
<defs>
<clipPath id="clip0_79_2946">
<rect width="60" height="27.7029" fill="white" transform="translate(10 26)"/>
</clipPath>
</defs>
</svg>
