<svg width="80" height="80" viewBox="0 0 80 80" fill="none" xmlns="http://www.w3.org/2000/svg">
<g clip-path="url(#clip0_79_3037)">
<path d="M62.564 30.0545C60.9862 28.3215 59.0835 26.8867 56.9871 25.8425C54.8912 24.7966 52.6003 24.1481 50.2673 23.9329L49.8294 23.8995L49.6102 23.8828L49.5005 23.8741C49.4642 23.8724 49.4273 23.8718 49.3909 23.8706L48.5123 23.8481L47.6337 23.8706C47.5973 23.8718 47.5604 23.8718 47.5241 23.8741L47.4145 23.8828L47.1952 23.8995L46.7574 23.9329C45.5909 24.0414 44.4347 24.256 43.3086 24.5762C41.0552 25.2143 38.9241 26.2775 37.0549 27.6903C35.1835 29.1003 33.5791 30.8633 32.3462 32.8554C31.1111 34.8463 30.2515 37.0668 29.824 39.3698C29.6094 40.5207 29.5015 41.6919 29.498 42.8641C29.5015 44.0364 29.6094 45.2075 29.824 46.3585C30.2515 48.6609 31.1111 50.882 32.3462 52.8729C33.5791 54.8649 35.1835 56.628 37.0549 58.0379C38.9241 59.4508 41.0558 60.514 43.3086 61.1521C44.4347 61.4717 45.5909 61.6869 46.7574 61.7953L47.1952 61.8288L47.4145 61.8455L47.5241 61.8542C47.5604 61.8559 47.5973 61.8565 47.6337 61.8576L48.5123 61.8801L49.3909 61.8576C49.4273 61.8565 49.4642 61.8565 49.5005 61.8542L49.6102 61.8455L49.8294 61.8288L50.2673 61.7953C52.6003 61.5801 54.8906 60.9317 56.9871 59.8858C59.0835 58.8416 60.9862 57.4068 62.564 55.6738C64.1424 53.9419 65.3984 51.917 66.2429 49.7328C67.0904 47.5492 67.5219 45.2087 67.5271 42.8641C67.5219 40.5196 67.0904 38.1791 66.2429 35.9955C65.3984 33.8113 64.1424 31.7864 62.564 30.0545ZM66.2701 42.8641C66.2643 45.057 65.8616 47.24 65.0707 49.2782C64.2826 51.317 63.1098 53.2081 61.6352 54.8263C60.1606 56.4451 58.3832 57.7858 56.4257 58.7602C54.4689 59.7363 52.332 60.3415 50.1525 60.5429L49.7428 60.574L49.538 60.5896L49.4359 60.5977C49.4019 60.5994 49.3673 60.5994 49.3332 60.6005L48.5117 60.6213L47.6902 60.6005C47.6562 60.5994 47.6216 60.5994 47.5875 60.5977L47.4854 60.5896L47.2806 60.574L46.871 60.5429C45.7812 60.4413 44.7024 60.2411 43.6513 59.9423C41.5485 59.3464 39.5587 58.3546 37.8124 57.0347C36.0638 55.7176 34.5644 54.07 33.4135 52.2094C32.2603 50.3501 31.4584 48.2778 31.0592 46.1283C30.859 45.0535 30.758 43.9597 30.754 42.8636C30.7574 41.7669 30.8584 40.6736 31.0592 39.5988C31.4584 37.4493 32.2603 35.377 33.4135 33.5177C34.5644 31.6577 36.0638 30.0095 37.8124 28.6924C39.5587 27.3725 41.5485 26.3808 43.6513 25.7848C44.7024 25.4866 45.7812 25.2858 46.871 25.1843L47.2806 25.1531L47.4854 25.1375L47.5875 25.1295C47.6216 25.1277 47.6562 25.1277 47.6902 25.1266L48.5117 25.1058L49.3332 25.1266C49.3673 25.1277 49.4019 25.1277 49.4359 25.1295L49.538 25.1375L49.7428 25.1531L50.1525 25.1843C52.3314 25.3856 54.4683 25.9902 56.4257 26.9669C58.3832 27.9413 60.1612 29.282 61.6352 30.9008C63.1098 32.519 64.2826 34.4101 65.0707 36.4489C65.8616 38.4871 66.2643 40.6707 66.2701 42.863V42.8641Z" fill="#E61E27"/>
<path d="M68.5491 35.1017C67.7801 33.1131 66.7099 31.2434 65.3917 29.5692C65.4799 29.5427 65.5636 29.4948 65.6334 29.425L66.932 28.1264C67.543 27.5148 67.543 26.5202 66.932 25.9093L65.6334 24.6107C65.3374 24.3147 64.9434 24.1515 64.5246 24.1515C64.1057 24.1515 63.7123 24.3147 63.4158 24.6107L62.1171 25.9093C62.0543 25.9722 62.0093 26.0466 61.9816 26.1251C60.7793 25.1576 59.4732 24.3188 58.0909 23.6299C56.7358 22.9532 55.3068 22.4242 53.8391 22.0492V18.0247C53.8391 16.3569 52.4822 15 50.8144 15H46.3041C44.6363 15 43.2794 16.3569 43.2794 18.0247V22.0261C43.0631 22.0804 42.8479 22.1363 42.6333 22.1975C40.0845 22.9198 37.6742 24.122 35.5633 25.7183C35.4046 25.8378 35.2489 25.9601 35.0937 26.0841C35.0654 26.0206 35.0262 25.9612 34.9743 25.9093L33.6757 24.6107C33.3797 24.3147 32.9857 24.1515 32.5668 24.1515C32.148 24.1515 31.7546 24.3147 31.458 24.6107L30.1594 25.9093C29.5479 26.5208 29.5479 27.5154 30.1594 28.1264L31.458 29.425C31.514 29.4809 31.5786 29.523 31.6473 29.5507C31.1425 30.1905 30.6734 30.8586 30.2442 31.5514C29.9667 31.9985 29.7065 32.4566 29.4631 32.9233H10.5769C10.2585 32.9233 10 33.1818 10 33.5002C10 33.8187 10.2585 34.0771 10.5769 34.0771H28.9058C28.2129 35.6233 27.7024 37.2519 27.3932 38.9174C27.1745 40.092 27.0551 41.2844 27.0309 42.4769H14.422C14.1035 42.4769 13.8451 42.7354 13.8451 43.0538C13.8451 43.3723 14.1035 43.6307 14.422 43.6307H27.0418C27.0816 44.6963 27.197 45.7601 27.3926 46.8095C27.7272 48.6129 28.2972 50.3719 29.0794 52.0305H10.5769C10.2585 52.0305 10 52.2889 10 52.6074C10 52.9258 10.2585 53.1843 10.5769 53.1843H29.4637C29.5294 53.1843 29.5923 53.1727 29.6512 53.1526C29.8404 53.4987 30.0377 53.8402 30.2454 54.1754C31.6386 56.4259 33.4501 58.4157 35.5639 60.0091C37.6748 61.6048 40.0851 62.8077 42.6339 63.5299C43.9077 63.8917 45.2155 64.1345 46.5326 64.2568L47.027 64.2943L47.2745 64.3128L47.398 64.322C47.4395 64.3243 47.4805 64.3243 47.522 64.3261L48.5131 64.3509L49.5042 64.3261C49.5458 64.3249 49.5867 64.3243 49.6283 64.322L49.7517 64.3128L49.9992 64.2943L50.4936 64.2568C53.1289 64.0145 55.7221 63.2801 58.0915 62.0975C60.462 60.9171 62.6098 59.296 64.3913 57.3392C66.174 55.3834 67.5931 53.0966 68.5485 50.6257C69.5073 48.156 69.9948 45.5062 70 42.8634C69.9954 40.2206 69.5073 37.5709 68.5485 35.1012L68.5491 35.1017ZM62.9335 26.725L64.2321 25.4264C64.3105 25.348 64.4144 25.3053 64.5246 25.3053C64.6348 25.3053 64.7392 25.3485 64.8171 25.4264L66.1157 26.725C66.2772 26.8866 66.2772 27.1491 66.1157 27.3106L64.8171 28.6092C64.7744 28.6519 64.7398 28.6998 64.7132 28.75C64.6071 28.6283 64.4998 28.5077 64.3907 28.3883C63.89 27.8385 63.3592 27.3164 62.8037 26.8214C62.8498 26.796 62.8931 26.7637 62.9323 26.725H62.9335ZM44.4332 18.0247C44.4332 16.9932 45.2726 16.1538 46.3041 16.1538H50.8144C51.8459 16.1538 52.6853 16.9932 52.6853 18.0247V21.789C51.9601 21.646 51.2286 21.5387 50.4931 21.4706L49.9987 21.4331L49.7512 21.4146L49.6277 21.4054C49.5862 21.4031 49.5452 21.4031 49.5037 21.4014L48.5125 21.3765L47.5214 21.4014C47.4799 21.4025 47.4389 21.4031 47.3974 21.4054L47.2739 21.4146L47.0264 21.4331L46.532 21.4706C45.8282 21.5358 45.1273 21.6367 44.4332 21.7706V18.0247ZM32.2749 28.6086L30.9763 27.31C30.8148 27.1485 30.8148 26.886 30.9763 26.7245L32.2749 25.4259C32.3534 25.3474 32.4572 25.3047 32.5674 25.3047C32.6776 25.3047 32.782 25.348 32.8599 25.4259L34.1585 26.7245C34.1862 26.7522 34.2162 26.7764 34.2474 26.7972C33.5764 27.3925 32.943 28.03 32.3517 28.705C32.3297 28.671 32.3044 28.6386 32.2744 28.6086H32.2749ZM67.3768 50.1717C66.478 52.4966 65.1413 54.6502 63.4625 56.4923C61.7843 58.3349 59.7611 59.8614 57.5302 60.9725C55.2998 62.0859 52.8601 62.7765 50.3788 63.005L49.9127 63.0407L49.6796 63.0586L49.5631 63.0673C49.5244 63.069 49.4852 63.0696 49.4466 63.0707L48.5125 63.0944L47.5785 63.0707C47.5399 63.0696 47.5006 63.069 47.462 63.0673L47.3455 63.0586L47.1124 63.0407L46.6462 63.005C45.4059 62.8896 44.1754 62.6611 42.9765 62.3208C40.5783 61.6412 38.3094 60.5098 36.3214 59.007C34.3305 57.507 32.6245 55.6327 31.3127 53.5137C29.9985 51.3959 29.0829 49.0317 28.6283 46.5804C28.3999 45.3551 28.285 44.1095 28.2816 42.864C28.285 41.6185 28.3999 40.3723 28.6283 39.1476C29.0829 36.6969 29.9985 34.3327 31.3127 32.2143C32.6245 30.0953 34.3305 28.221 36.3214 26.721C38.3094 25.2182 40.5778 24.0863 42.9765 23.4073C44.1754 23.0669 45.4059 22.8384 46.6462 22.723L47.1124 22.6873L47.3455 22.6694L47.462 22.6607C47.5006 22.659 47.5399 22.6584 47.5785 22.6573L48.5125 22.6336L49.4466 22.6573C49.4852 22.6584 49.5244 22.659 49.5631 22.6607L49.6796 22.6694L49.9127 22.6873L50.3788 22.723C52.8601 22.9515 55.2998 23.6421 57.5302 24.7555C59.7611 25.8666 61.7843 27.3931 63.4625 29.2357C65.1413 31.0778 66.4774 33.2314 67.3768 35.5563C68.2791 37.8807 68.7383 40.3729 68.7429 42.864C68.7377 45.3551 68.2785 47.8479 67.3768 50.1717Z" fill="#E61E27"/>
<path d="M55.3132 52.9283C55.1522 52.6531 54.7991 52.5608 54.524 52.7217C54.2488 52.8827 54.1565 53.2363 54.3174 53.5109L56.2466 56.8062C56.3539 56.9897 56.5466 57.0918 56.745 57.0918C56.8437 57.0918 56.9441 57.0664 57.0358 57.0128C57.311 56.8518 57.4033 56.4982 57.2423 56.2235L55.3132 52.9283Z" fill="#E61E27"/>
<path d="M42.5829 32.8999C42.6822 32.8999 42.782 32.8745 42.8737 32.8209C43.1489 32.6599 43.2412 32.3063 43.0802 32.0316L41.1511 28.7364C40.9901 28.4612 40.637 28.3689 40.3618 28.5298C40.0867 28.6908 39.9944 29.0444 40.1553 29.319L42.0845 32.6143C42.1918 32.7978 42.3845 32.8999 42.5829 32.8999Z" fill="#E61E27"/>
<path d="M62.7845 50.2241L59.4766 48.3174C59.2002 48.1582 58.8477 48.2534 58.6885 48.5291C58.5293 48.8055 58.6245 49.158 58.9002 49.3172L62.2082 51.2239C62.2988 51.2764 62.398 51.3012 62.4955 51.3012C62.6951 51.3012 62.889 51.1973 62.9957 51.0121C63.1549 50.7358 63.0597 50.3833 62.784 50.2241H62.7845Z" fill="#E61E27"/>
<path d="M38.4976 36.2251L35.1896 34.3184C34.9132 34.1592 34.5607 34.2543 34.4015 34.5301C34.2423 34.8064 34.3369 35.1589 34.6132 35.3182L37.9212 37.2248C38.0118 37.2773 38.111 37.3021 38.2085 37.3021C38.4081 37.3021 38.602 37.1983 38.7087 37.0131C38.8679 36.7368 38.7733 36.3843 38.497 36.2251H38.4976Z" fill="#E61E27"/>
<path d="M64.6205 42.0928L60.802 42.117C60.4835 42.1193 60.2268 42.3789 60.2285 42.6974C60.2308 43.0147 60.4887 43.2708 60.8054 43.2708H60.8089L64.6274 43.2466C64.9459 43.2443 65.2026 42.9847 65.2009 42.6662C65.1992 42.3478 64.9372 42.0928 64.6205 42.0928Z" fill="#E61E27"/>
<path d="M37.1696 42.844C37.1673 42.5267 36.91 42.2705 36.5927 42.2705H36.5893L32.7707 42.2947C32.4523 42.297 32.1955 42.5567 32.1973 42.8751C32.1996 43.1924 32.4569 43.4485 32.7742 43.4485H32.7776L36.5962 43.4243C36.9146 43.422 37.1714 43.1624 37.1696 42.844Z" fill="#E61E27"/>
<path d="M59.2004 37.3234C59.2979 37.3234 59.3966 37.2986 59.4871 37.2467L62.7991 35.3463C63.0755 35.1877 63.1713 34.8352 63.0126 34.5588C62.854 34.2825 62.5015 34.1873 62.2251 34.3454L58.9131 36.2457C58.6368 36.4044 58.541 36.7569 58.6997 37.0332C58.8064 37.219 59.0008 37.3234 59.2004 37.3234Z" fill="#E61E27"/>
<path d="M37.9107 48.2949L34.5987 50.1952C34.3223 50.3538 34.2265 50.7063 34.3852 50.9827C34.4919 51.1684 34.6863 51.2729 34.886 51.2729C34.9834 51.2729 35.0821 51.248 35.1727 51.1961L38.4847 49.2958C38.761 49.1371 38.8568 48.7847 38.6982 48.5083C38.5395 48.232 38.187 48.1362 37.9107 48.2949Z" fill="#E61E27"/>
<path d="M54.427 32.764C54.5175 32.8159 54.6156 32.8402 54.7131 32.8402C54.9133 32.8402 55.1077 32.7358 55.2144 32.55L57.1113 29.2362C57.2694 28.9599 57.1736 28.6074 56.8973 28.4488C56.6209 28.2907 56.2684 28.3865 56.1098 28.6628L54.2129 31.9765C54.0548 32.2529 54.1506 32.6054 54.427 32.764Z" fill="#E61E27"/>
<path d="M42.9715 52.7776C42.6946 52.619 42.3427 52.7153 42.184 52.9917L40.2871 56.3054C40.1291 56.5818 40.2248 56.9342 40.5012 57.0929C40.5917 57.1448 40.6898 57.169 40.7873 57.169C40.9875 57.169 41.1819 57.0646 41.2886 56.8789L43.1855 53.5651C43.3436 53.2888 43.2478 52.9363 42.9715 52.7776Z" fill="#E61E27"/>
<path d="M48.698 31.2409C49.0165 31.2409 49.2749 30.9825 49.2749 30.664V26.8455C49.2749 26.527 49.0165 26.2686 48.698 26.2686C48.3795 26.2686 48.1211 26.527 48.1211 26.8455V30.664C48.1211 30.9825 48.3795 31.2409 48.698 31.2409Z" fill="#E61E27"/>
<path d="M48.698 54.3008C48.3795 54.3008 48.1211 54.5592 48.1211 54.8777V58.6962C48.1211 59.0147 48.3795 59.2731 48.698 59.2731C49.0165 59.2731 49.2749 59.0147 49.2749 58.6962V54.8777C49.2749 54.5592 49.0165 54.3008 48.698 54.3008Z" fill="#E61E27"/>
<path d="M56.6499 34.8605C56.3787 34.5848 55.9351 34.5813 55.6599 34.8524L48.0217 42.3649C47.7459 42.6361 47.7424 43.0791 48.0136 43.3549C48.1509 43.4945 48.3315 43.5643 48.5126 43.5643C48.6937 43.5643 48.8674 43.4974 49.0035 43.3635L56.6418 35.8511C56.9175 35.5799 56.921 35.1369 56.6499 34.8611V34.8605Z" fill="#E61E27"/>
</g>
<defs>
<clipPath id="clip0_79_3037">
<rect width="60" height="49.3515" fill="white" transform="translate(10 15)"/>
</clipPath>
</defs>
</svg>
