<svg width="80" height="80" viewBox="0 0 80 80" fill="none" xmlns="http://www.w3.org/2000/svg">
<g clip-path="url(#clip0_79_4722)">
<path d="M43.4371 17.9418C43.158 17.6061 42.7509 17.3746 42.3224 17.2947C42.1073 17.2579 41.8876 17.2523 41.6742 17.2925C41.5666 17.3083 41.463 17.3417 41.36 17.3763C41.2586 17.4164 41.1579 17.46 41.0628 17.5172L40.9897 17.5597L40.8997 17.6163L40.7202 17.7295L40.3608 17.956L39.6423 18.4089L33.8945 22.0338L28.1466 25.6586L25.2724 27.4708L23.8356 28.3772L23.4761 28.6036L23.3861 28.6602L23.3414 28.6885L23.2848 28.7231C23.2066 28.7695 23.1268 28.8125 23.0441 28.8499C22.7141 29.0022 22.3512 29.0814 21.9883 29.0814H16.8394L16.7936 29.0826L16.7013 29.0848C16.6396 29.0848 16.579 29.0933 16.5179 29.0967C16.3956 29.1075 16.2744 29.125 16.1544 29.1482C15.9138 29.1947 15.6789 29.266 15.453 29.3611C15.0018 29.5513 14.5908 29.8366 14.2522 30.1922C13.9137 30.5471 13.6482 30.9712 13.48 31.4309C13.3963 31.6607 13.3362 31.8996 13.3017 32.1419C13.2847 32.2631 13.2734 32.3853 13.2677 32.5082L13.2655 32.6005C13.2649 32.631 13.2632 32.6605 13.2638 32.6978V41.4043L13.2672 48.1808C13.2836 48.6727 13.3997 49.159 13.608 49.604C13.8158 50.049 14.1152 50.4521 14.4827 50.7787C14.8495 51.1065 15.282 51.3596 15.7468 51.5164C15.9795 51.5951 16.2195 51.65 16.4635 51.68C16.5241 51.689 16.5858 51.6941 16.6469 51.6981C16.6775 51.7004 16.7081 51.7032 16.7392 51.7049L16.8315 51.7072L16.9249 51.7094H22.1899L22.2601 51.7111C22.3071 51.7134 22.3535 51.7162 22.4005 51.7213C22.5873 51.7406 22.7713 51.7842 22.9468 51.8504C23.0345 51.8832 23.12 51.9223 23.2027 51.9664C23.244 51.9885 23.2848 52.0117 23.3244 52.0366L23.3833 52.074L23.428 52.1029L24.1413 52.5643L29.8467 56.256L35.5521 59.9477L38.4048 61.7932L39.8309 62.716L40.5442 63.1774L40.9008 63.4084L40.9229 63.4225L40.9416 63.4333L40.9773 63.4548L41.0486 63.4978C41.0984 63.521 41.1465 63.5499 41.1969 63.5709C41.5972 63.7503 42.0535 63.7837 42.4769 63.6592C42.6892 63.6009 42.8896 63.5007 43.0702 63.375C43.2491 63.247 43.4076 63.0897 43.5322 62.9108C43.655 62.7307 43.7518 62.5332 43.8051 62.3214L43.8249 62.2422C43.8305 62.2156 43.8345 62.1884 43.8396 62.1612C43.8515 62.1074 43.8549 62.0525 43.8611 61.9976C43.8679 61.9427 43.8656 61.8866 43.8696 61.8312V19.1488C43.8696 18.924 43.8322 18.7083 43.7609 18.5028C43.6862 18.2996 43.5786 18.1082 43.4371 17.9418ZM42.7187 25.944V61.8249C42.7147 61.8487 42.7187 61.8742 42.7141 61.8968C42.7107 61.9195 42.7113 61.9433 42.7051 61.9636C42.7028 61.9744 42.7022 61.9857 42.7 61.9959C42.6966 62.0061 42.6938 62.0163 42.6915 62.0265C42.6722 62.1086 42.6343 62.1799 42.5885 62.2495C42.5409 62.318 42.4775 62.3809 42.4039 62.4341C42.3292 62.485 42.246 62.5286 42.1599 62.5507C42.0744 62.5767 41.9884 62.5835 41.9068 62.5784C41.8248 62.575 41.7472 62.5513 41.6657 62.5173C41.6453 62.5099 41.6255 62.4952 41.604 62.4879C41.5938 62.4811 41.5836 62.4743 41.5734 62.4686L41.5575 62.4596C41.5541 62.4579 41.5536 62.4579 41.5479 62.4545L41.5258 62.4403L41.1692 62.2093L40.4559 61.7479L39.0298 60.8252L36.1771 58.9796L30.4717 55.2879L24.7663 51.5962L24.053 51.1348L24.0083 51.1059C23.9822 51.0884 23.9494 51.0686 23.9199 51.0505C23.8599 51.0131 23.7982 50.9786 23.736 50.9452C23.6108 50.8789 23.4818 50.82 23.3493 50.7708C23.0843 50.6712 22.8069 50.6055 22.5256 50.576C22.4554 50.5687 22.3846 50.5636 22.3138 50.5602L22.208 50.5579H16.9249L16.8581 50.5551L16.7941 50.554C16.7732 50.5528 16.7522 50.5506 16.7307 50.5489C16.6883 50.546 16.6464 50.5432 16.6051 50.5364C16.438 50.516 16.2744 50.4781 16.1159 50.4249C15.7989 50.3179 15.5028 50.1452 15.2503 49.9199C14.9978 49.6952 14.7923 49.4183 14.6502 49.1143C14.5081 48.8103 14.4289 48.4808 14.4175 48.1411L14.4147 41.4031V32.6492L14.4164 32.6174L14.4181 32.5546C14.4215 32.4708 14.4294 32.3882 14.4408 32.3055C14.4645 32.1413 14.5047 31.9806 14.5613 31.8249C14.6751 31.5146 14.8546 31.227 15.085 30.9853C15.3154 30.7436 15.5945 30.5494 15.8991 30.4209C16.0514 30.3569 16.2105 30.3088 16.3729 30.2777C16.4545 30.2624 16.5366 30.2505 16.6192 30.2431C16.6611 30.2414 16.7019 30.2341 16.7443 30.2352L16.8072 30.2335L16.8389 30.2324H21.9883C22.5171 30.2324 23.0453 30.1169 23.5254 29.8955C23.6454 29.8406 23.7626 29.7783 23.8758 29.711L23.9556 29.6623L24.0003 29.634L24.0903 29.5774L24.4498 29.3509L25.8867 28.4445L28.7609 26.6324L34.5087 23.0075L40.2566 19.3826L40.975 18.9297L41.3345 18.7032L41.514 18.59L41.604 18.5334L41.6379 18.5147C41.6781 18.4887 41.7189 18.4745 41.7568 18.457C41.7964 18.4462 41.8344 18.4304 41.8734 18.4264C41.951 18.41 42.0314 18.4145 42.1146 18.427C42.2794 18.4581 42.452 18.5538 42.5562 18.6834C42.6105 18.7468 42.6479 18.817 42.6762 18.8906C42.6796 18.9104 42.6909 18.9274 42.6932 18.9484C42.6955 18.9586 42.6983 18.9682 42.7011 18.9778C42.7028 18.988 42.7039 18.9988 42.7056 19.0095C42.7119 19.0293 42.7102 19.0531 42.7141 19.0746C42.717 19.0854 42.7141 19.0978 42.7153 19.1097L42.7175 19.1488V25.944H42.7187Z" fill="#E71324"/>
<path d="M46.1195 18.7984C46.1076 18.6795 46.0974 18.5612 46.0748 18.4423C46.0646 18.3828 46.0538 18.324 46.0419 18.2645L45.9989 18.0879C45.9717 17.9701 45.9298 17.8552 45.8925 17.7397C45.7266 17.2823 45.4809 16.8515 45.169 16.4829C44.5468 15.7413 43.6778 15.2431 42.7301 15.0665C42.2557 14.9821 41.7615 14.9742 41.2814 15.0614C41.0408 15.101 40.8064 15.1695 40.5788 15.2493C40.3541 15.3354 40.1339 15.4345 39.9312 15.5545L39.7817 15.6428L39.6917 15.6994L39.5123 15.8126L39.1528 16.0391L38.4344 16.492L32.6865 20.1169L26.9386 23.7418L24.0644 25.5539L22.6276 26.4603L22.2681 26.6867L22.1781 26.7434L22.1334 26.7717L22.1226 26.7779C22.1141 26.7824 22.1062 26.7875 22.0977 26.7909C22.0637 26.8068 22.0258 26.8153 21.9884 26.8153H16.839L16.7642 26.817L16.6148 26.8209C16.5152 26.822 16.4155 26.8334 16.3164 26.8402C16.1177 26.8577 15.919 26.886 15.7226 26.924C15.3291 27.0004 14.943 27.1176 14.5733 27.2727C13.834 27.5841 13.1643 28.0494 12.6134 28.628C12.062 29.206 11.6289 29.8984 11.3538 30.6519C11.2162 31.0289 11.1183 31.4201 11.0611 31.8164C11.0328 32.0145 11.0147 32.2138 11.0062 32.4131L11.0022 32.5625L11.0005 32.6373V47.7732C11.0005 47.9198 10.9977 48.0325 11.0051 48.2555C11.0305 49.0481 11.2196 49.8424 11.5587 50.5636C11.8967 51.286 12.3807 51.9359 12.9735 52.4646C13.5656 52.9945 14.2665 53.405 15.0223 53.6603C15.3999 53.7882 15.7911 53.8771 16.1862 53.9258C16.2847 53.9394 16.3838 53.9479 16.4829 53.9553C16.5321 53.9587 16.582 53.9632 16.6312 53.9654L16.7795 53.9694L16.925 53.9722H22.1521C22.1521 53.9722 22.1509 53.9711 22.1538 53.9734L22.1985 54.0022L22.9118 54.4636L28.6172 58.1553L34.3226 61.847L37.1753 63.6926L38.6014 64.6154L39.3147 65.0768L39.6713 65.3077L39.6934 65.3219L39.7291 65.344L39.8044 65.3898L39.9561 65.4793C40.062 65.5336 40.1656 65.5902 40.2754 65.6372C40.7119 65.8303 41.1897 65.956 41.6737 65.9865L41.8549 65.9956C41.9155 65.9973 41.9755 65.9956 42.036 65.9956C42.1572 65.9956 42.2766 65.9843 42.3967 65.9735C42.635 65.9458 42.8722 65.9027 43.1009 65.8354C43.5606 65.7057 43.992 65.4946 44.3809 65.2211C44.7682 64.9454 45.1124 64.6035 45.3886 64.2078C45.6638 63.8115 45.8755 63.3648 45.9955 62.8972L46.0385 62.7217C46.0516 62.6628 46.0612 62.6039 46.0719 62.5451C46.0946 62.4267 46.1065 62.3096 46.1178 62.1912C46.1302 62.0729 46.1302 61.9569 46.1342 61.8391V19.1488L46.1297 18.9756C46.1269 18.9167 46.1263 18.8578 46.1195 18.7984ZM44.9827 25.944V61.8346C44.9788 61.9206 44.9799 62.0061 44.9697 62.0922C44.9606 62.1782 44.9533 62.2643 44.9363 62.3492C44.9284 62.3916 44.9216 62.4347 44.9125 62.4771L44.8814 62.6039C44.7953 62.9413 44.6425 63.2618 44.4443 63.5477C44.2451 63.833 43.9954 64.081 43.714 64.2819C43.431 64.4801 43.1168 64.6352 42.7833 64.7286C42.6174 64.7784 42.4459 64.8084 42.2732 64.8288C42.1866 64.8356 42.1 64.8452 42.0128 64.8447C41.9692 64.8447 41.9256 64.8469 41.8821 64.8452L41.7513 64.8384C41.4031 64.8175 41.06 64.7258 40.743 64.5865C40.6632 64.5525 40.5879 64.5106 40.5103 64.4716L40.3994 64.4059L40.3445 64.3725L40.3173 64.3561L40.2952 64.3419L39.9385 64.111L39.2252 63.6496L37.7992 62.7268L34.9465 60.8812L29.2411 57.1895L23.5357 53.4978L22.8223 53.0364L22.7776 53.0076L22.747 52.9883C22.7272 52.9753 22.7063 52.964 22.6853 52.9526C22.6434 52.93 22.5999 52.9102 22.5551 52.8932C22.4657 52.8598 22.3723 52.8377 22.2772 52.8281C22.2534 52.8258 22.2296 52.8241 22.2058 52.823H16.925L16.8061 52.8196L16.6861 52.8162C16.6459 52.8145 16.6063 52.8106 16.5661 52.8077C16.4863 52.8021 16.4065 52.7958 16.3272 52.7839C16.009 52.7449 15.6948 52.673 15.3908 52.57C14.7828 52.365 14.2184 52.0344 13.7406 51.607C13.2622 51.1807 12.8721 50.6564 12.6004 50.075C12.3275 49.4942 12.1758 48.8567 12.1549 48.217C12.1492 48.0489 12.1515 47.917 12.1509 47.7737V32.6967C12.1509 32.6633 12.1515 32.6214 12.1526 32.5818L12.1554 32.4618C12.1622 32.3016 12.1769 32.1414 12.1996 31.9823C12.2454 31.6641 12.3241 31.3505 12.434 31.0487C12.6548 30.4447 13.0024 29.8882 13.4456 29.424C13.8883 28.9592 14.4267 28.585 15.0195 28.3353C15.3161 28.2108 15.6252 28.1168 15.9411 28.0556C16.0991 28.0256 16.2581 28.0024 16.4178 27.9883C16.4976 27.9832 16.578 27.9735 16.6578 27.973L16.7778 27.9701L16.8378 27.969H21.9879C22.1911 27.969 22.3944 27.9243 22.5783 27.8394C22.6248 27.8184 22.6695 27.7941 22.7131 27.7686L22.747 27.7477L22.7918 27.7194L22.8818 27.6627L23.2413 27.4363L24.6781 26.5299L27.5523 24.7178L33.3002 21.0929L39.048 17.468L39.7664 17.0151L40.1259 16.7886L40.3054 16.6754L40.3954 16.6188L40.5058 16.5537C41.1002 16.2016 41.8385 16.073 42.5223 16.2004C43.2062 16.3278 43.8403 16.6907 44.2881 17.2257C44.5134 17.4912 44.6889 17.8003 44.8083 18.1286C44.9244 18.4576 44.9821 18.808 44.9827 19.1494V25.9446V25.944Z" fill="#E71324"/>
<path d="M68.9982 27.4085C68.9784 27.0456 68.7005 26.7348 68.3421 26.7592C68.1898 26.8441 68.037 26.9703 67.8881 27.1566C67.5348 27.5993 67.2053 28.38 66.9636 29.7472C66.5639 32.0077 66.4858 35.3439 66.4246 39.4704C66.376 43.834 66.2684 48.6325 65.6157 50.3116C65.5392 50.5081 65.3535 50.6372 65.1424 50.64C64.9318 50.6394 64.7427 50.5177 64.6617 50.323C63.9637 48.6506 63.7407 43.4547 63.5782 39.6606C63.4208 35.5981 63.251 32.0451 62.7618 29.6855C62.1861 26.9035 61.3171 26.5469 60.6241 26.5469C59.9312 26.5469 59.0594 26.8956 58.5623 29.6136C58.149 31.873 58.0687 35.2482 58.0075 39.4262C57.9577 43.8414 57.8484 48.6903 57.1764 50.3213C57.096 50.5154 56.9098 50.64 56.7009 50.64H56.6969C56.4863 50.6389 56.3001 50.5109 56.2225 50.315C55.5415 48.594 55.3212 43.4559 55.1605 39.7047C55.0031 35.6422 54.8333 32.0892 54.3447 29.7296C53.7684 26.9477 52.8994 26.591 52.207 26.591C51.5146 26.591 50.6417 26.9398 50.1446 29.6577C49.7313 31.9171 49.6515 35.2924 49.5898 39.4704C49.5655 41.6454 49.5309 43.9433 49.4053 46.0074C49.1918 49.5196 48.8204 50.4107 48.5204 50.7951C48.513 50.8042 48.5057 50.8132 48.4978 50.8223C48.4536 50.871 48.4225 50.9321 48.4219 50.9983C48.4191 51.2678 48.7242 51.526 48.9812 51.5894C49.2048 51.6443 49.4047 51.612 49.5864 51.5265C49.6374 51.5028 49.6798 51.4631 49.7064 51.4139C49.9595 50.9434 50.1899 50.2482 50.3716 49.223C50.7713 46.9624 50.8494 43.6263 50.9106 39.4998C50.9638 35.024 51.0793 30.1146 51.7801 28.5277C51.86 28.3466 52.04 28.226 52.2387 28.2215C52.4357 28.2169 52.6231 28.329 52.7114 28.5074C53.487 30.0761 53.7186 35.1905 53.8878 38.9252C53.9008 39.2099 53.9133 39.4856 53.9252 39.7489C54.082 43.7446 54.2484 47.2297 54.7047 49.4506C55.2329 52.0196 56.0408 52.3723 56.6913 52.3791H56.7111C56.783 52.3791 56.8537 52.3644 56.9222 52.3361L56.9709 52.3157L57.0247 52.3055C59.0016 51.9228 59.2139 47.1957 59.3277 39.4556C59.3809 35.0014 59.4964 30.114 60.1978 28.5277C60.2782 28.3455 60.4588 28.2254 60.657 28.2215C60.6609 28.2209 60.6643 28.2209 60.6677 28.2209C60.8619 28.2209 61.0419 28.3324 61.1286 28.5074C61.9041 30.0755 62.1357 35.1899 62.305 38.924C62.318 39.2094 62.3304 39.4851 62.3429 39.7489C62.4991 43.7446 62.6656 47.2297 63.1224 49.4506C63.654 52.0366 64.4687 52.3769 65.1214 52.3791H65.1339C65.8302 52.3769 66.6936 52.0242 67.1917 49.2909C67.6039 47.027 67.6837 43.6625 67.7454 39.4998C67.7647 37.7884 67.7941 35.1995 67.93 32.9628C68.1258 29.7347 68.4559 28.7208 68.7407 28.2798C68.8516 27.9956 69.0158 27.7108 68.9988 27.4096L68.9982 27.4085Z" fill="#E71324"/>
</g>
<defs>
<clipPath id="clip0_79_4722">
<rect width="58" height="50.997" fill="white" transform="translate(11 15)"/>
</clipPath>
</defs>
</svg>
