<svg cursor="default" height="40" viewBox="0 0 158 40" width="158" xmlns="http://www.w3.org/2000/svg"><g fill="none" fill-rule="evenodd"><path d="m137.152 36.839c-.989 1.68-3.39 3.055-5.34 3.055h-129.546c-1.948 0-2.736-1.375-1.748-3.055l19.508-33.197c.988-1.68 3.39-3.056 5.34-3.056h129.546c1.949 0 2.736 1.375 1.749 3.056z" fill="#ec9430"/><g fill="#fffffe"><path d="m117.113 26.234h3.571v-12.701h-3.571zm8.706-6.336h-.008l.008-.029 3.665-6.336h-3.57l-3.667 6.336.021.029h-.021l3.667 6.336h3.57zm-39.393-6.364h-2.867l-7.334 12.7h3.612l5.222-9.043v9.043h3.611v-12.7zm-39.116 7.406h5.62l1.218-2.083h-5.702z"/><path d="m46.16 18.35h.004c0-1.604.48-2.207 2.04-2.207h5.082l1.519-2.633h-7.135c-3.037 0-5.045 1.065-5.045 4.914v7.834h10.976l1.52-2.632h-8.961zm61.697 2.59h5.623l1.217-2.083h-5.703z"/><path d="m106.832 18.35h.004c0-1.604.48-2.207 2.042-2.207h5.08l1.52-2.633h-7.133c-3.038 0-5.045 1.065-5.045 4.914v7.834h10.975l1.52-2.632h-8.963zm-16.586-2.174h4.442v10.058h3.495v-10.058h3.287l1.524-2.642h-11.222zm-27.766 7.454h-1.938v-7.493h1.938c2.823 0 3.708.497 3.708 3.65 0 3.154-.885 3.844-3.708 3.844zm.76-10.12h-6.122v12.748h6.286c4.416 0 6.402-1.703 6.402-6.474 0-4.512-1.967-6.274-6.565-6.274zm8.559 12.724h3.571v-12.7h-3.571zm-39.115-6.246v-6.454l-4.246.013-7.324 12.673h3.502l4.497-7.779v7.727l-.031.052h.031v.014h3.571l4.397-7.793v7.793h3.571v-12.7l-4.246.013z"/></g></g></svg>